<svg width="40" height="40" fill="none" xmlns="http://www.w3.org/2000/svg"><circle cx="19" cy="20" r="18" fill="#FFEBEC"/><path d="M30.988 35.894H16.245a.527.527 0 00-.527.526v1.053a.527.527 0 001.053 0v-.526h14.217a.527.527 0 000-1.053zM19.93 19.572c0 .29.236.526.527.526h2.106c.29 0 .527-.236.527-.526v-3.16a.527.527 0 00-.527-.526h-2.106a.527.527 0 00-.526.526v3.16zm1.054-2.633h1.053v2.106h-1.053v-2.106zm-5.792-4.212H8.873a.527.527 0 00-.526.526v10.53a.527.527 0 001.053 0V13.78h5.792a.527.527 0 000-1.053zM33.62 32.208c0 .29.236.527.527.527h2.106c.29 0 .526-.236.526-.527V29.05a.527.527 0 00-.526-.526h-2.106a.527.527 0 00-.527.526v3.16zm1.053-2.632h1.054v2.106h-1.053v-2.106zM10.98 25.363c-2.603 0-2.633 6.777-2.633 6.845 0 1.272.906 2.335 2.106 2.58v2.686a.527.527 0 001.053 0v-2.686a2.637 2.637 0 002.106-2.58c0-.068-.03-6.845-2.632-6.845zm0 8.425c-.871 0-1.58-.709-1.58-1.58 0-2.623.704-5.792 1.58-5.792.875 0 1.58 3.169 1.58 5.792 0 .871-.71 1.58-1.58 1.58zm3.159-11.584h-2.106a.527.527 0 00-.527.527v1.053a.527.527 0 001.053 0v-.527h1.053v2.633a.527.527 0 001.053 0v-3.16a.527.527 0 00-.526-.526zm20.008-2.106h2.106c.29 0 .526-.236.526-.526v-3.16a.527.527 0 00-.526-.526h-2.106a.527.527 0 00-.527.526v3.16c0 .29.236.526.527.526zm.526-3.16h1.054v2.107h-1.053v-2.106z" fill="#4C2A2A"/><path d="M14.139 15.886h-2.106a.527.527 0 00-.527.526v3.16c0 .29.236.526.527.526h2.106c.29 0 .526-.236.526-.526v-3.16a.527.527 0 00-.526-.526zm-.527 3.159H12.56v-2.106h1.053v2.106zm11.584.527c0 .29.236.526.526.526h2.106a.527.527 0 00.527-.526v-3.16a.527.527 0 00-.527-.526h-2.106a.527.527 0 00-.526.526v3.16zm1.053-2.633h1.053v2.106h-1.053v-2.106zm13.163-4.212h-6.318a.527.527 0 000 1.053h5.792v21.158a1.561 1.561 0 00-.527-.097c-.09 0-.181.008-.27.024a2.09 2.09 0 00-1.836-1.077 2.09 2.09 0 00-1.835 1.077 1.582 1.582 0 00-1.85 1.556c0 .87.708 1.579 1.58 1.579h4.211c.871 0 1.58-.709 1.58-1.58V13.253a.527.527 0 00-.527-.526zm-1.053 24.22h-4.212a.527.527 0 010-1.053.52.52 0 01.285.086.528.528 0 00.799-.324 1.048 1.048 0 012.045 0 .525.525 0 00.798.324c.343-.221.812.05.812.44 0 .29-.237.527-.527.527zM25.722 13.78h2.106a.527.527 0 00.527-.527v-3.159a.527.527 0 00-.527-.527h-2.106a.527.527 0 00-.526.527v3.16c0 .29.236.526.526.526zm.527-3.16h1.053v2.107h-1.053V10.62zm-1.053 15.27c0 .29.236.526.526.526h2.106a.527.527 0 00.527-.526v-3.16a.527.527 0 00-.527-.526h-2.106a.527.527 0 00-.526.527v3.159zm1.053-2.633h1.053v2.106h-1.053v-2.106zm-5.792-9.477h2.106c.29 0 .527-.236.527-.527v-3.159a.527.527 0 00-.527-.527h-2.106a.527.527 0 00-.526.527v3.16c0 .29.235.526.526.526zm.527-3.16h1.053v2.107h-1.053V10.62zm2.785 21.214a.554.554 0 00-.153.374c0 .137.058.274.153.374.1.095.237.153.374.153a.554.554 0 00.374-.153.554.554 0 00.152-.374.554.554 0 00-.152-.374.551.551 0 00-.748 0zM19.93 25.89c0 .29.236.526.527.526h2.106c.29 0 .527-.236.527-.526v-3.16a.527.527 0 00-.527-.526h-2.106a.527.527 0 00-.526.527v3.159zm1.054-2.633h1.053v2.106h-1.053v-2.106z" fill="#4C2A2A"/><path d="M18.878 29.049c0 .29.235.527.526.527h1.58v4.738a.527.527 0 001.053 0v-4.738h4.212v4.738a.527.527 0 001.053 0v-4.738h1.58a.527.527 0 000-1.053h-9.478a.527.527 0 00-.526.526zM33.62 25.89c0 .29.236.526.527.526h2.106c.29 0 .526-.236.526-.526v-3.16a.527.527 0 00-.526-.526h-2.106a.527.527 0 00-.527.527v3.159zm1.053-2.633h1.054v2.106h-1.053v-2.106z" fill="#4C2A2A"/><path d="M30.988 6.408h-13.69a.527.527 0 00-.526.527v27.38a.527.527 0 001.053 0V7.46H30.46v26.853a.527.527 0 001.053 0V6.934a.527.527 0 00-.526-.526z" fill="#4C2A2A"/></svg>