<svg width="20" height="20" fill="none" xmlns="http://www.w3.org/2000/svg"><path d="M17.067 17.067c-3.9 3.899-10.244 3.899-14.143 0-3.899-3.9-3.899-10.244 0-14.143 3.9-3.899 10.243-3.899 14.143 0 3.899 3.9 3.899 10.243 0 14.143zM3.808 3.808c-3.412 3.412-3.412 8.963 0 12.375 3.412 3.411 8.963 3.411 12.375 0 3.411-3.412 3.411-8.963 0-12.375C12.77.396 7.22.396 3.808 3.808z" fill="#333"/><path d="M13.531 7.344L7.344 13.53a.625.625 0 01-.884-.884l6.187-6.187a.625.625 0 01.884.884z" fill="#333"/><path d="M13.531 13.531a.625.625 0 01-.884 0L6.46 7.344a.625.625 0 01.884-.884l6.187 6.187a.625.625 0 010 .884z" fill="#333"/></svg>