<svg width="40" height="40" fill="none" xmlns="http://www.w3.org/2000/svg"><circle cx="19" cy="20" r="18" fill="#FFEBEC"/><path d="M30.988 24.837h6.318a.526.526 0 00.527-.527v-2.106a.526.526 0 10-1.053 0v1.58h-5.792a.526.526 0 100 1.053zm5.792-8.951V13.78a.526.526 0 10-1.053 0v1.58H24.67a.527.527 0 000 1.052h11.583a.526.526 0 00.527-.526zm-20.535-.526c.29 0 .526-.237.526-.527V7.988h18.956v3.159H18.35a.527.527 0 000 1.053h17.902a.526.526 0 00.526-.526V7.46a.526.526 0 00-.526-.526H16.245a.527.527 0 00-.527.526v7.372c0 .29.236.526.527.526zm20.535 4.211h-7.898a.526.526 0 100 1.053h8.424a.526.526 0 00.527-.526v-2.106a.526.526 0 10-1.053 0v1.58zm1.053 8.425h-6.845a.526.526 0 100 1.053h7.371a.526.526 0 00.527-.526v-2.107a.526.526 0 10-1.053 0v1.58zm-8.425-1.053c0-5.807-4.724-10.53-10.53-10.53-5.807 0-10.531 4.723-10.531 10.53 0 5.806 4.724 10.53 10.53 10.53 5.807 0 10.531-4.724 10.531-10.53zm-10.53 9.477c-5.226 0-9.478-4.251-9.478-9.477s4.252-9.478 9.478-9.478c5.225 0 9.477 4.252 9.477 9.478s-4.252 9.477-9.477 9.477z" fill="#4C2A2A"/><path d="M18.878 24.31c.58 0 1.053.473 1.053 1.053a.527.527 0 001.053 0c0-.978-.674-1.796-1.58-2.031v-.075a.527.527 0 00-1.053 0v.075a2.104 2.104 0 00-1.58 2.031c0 1.162.945 2.106 2.107 2.106a1.054 1.054 0 010 2.107 1.054 1.054 0 01-1.053-1.053.527.527 0 00-1.053 0c0 .978.674 1.796 1.58 2.03v.076a.527.527 0 001.052 0v-.075a2.104 2.104 0 001.58-2.031 2.108 2.108 0 00-2.106-2.107 1.054 1.054 0 010-2.106zM38.36 34.314a.526.526 0 00-.527.527v1.58h-12.11a.526.526 0 100 1.052h12.636a.526.526 0 00.527-.526V34.84a.526.526 0 00-.527-.527zm1.052-4.212a.526.526 0 00-.526.527v1.58h-8.951a.526.526 0 100 1.052h9.477a.526.526 0 00.527-.526v-2.106a.526.526 0 00-.527-.527z" fill="#4C2A2A"/><path d="M18.878 18.518c-4.646 0-8.425 3.78-8.425 8.425 0 4.645 3.78 8.424 8.425 8.424 4.645 0 8.424-3.78 8.424-8.424 0-4.645-3.78-8.425-8.424-8.425zm0 15.796c-4.065 0-7.372-3.306-7.372-7.371s3.307-7.372 7.372-7.372c4.064 0 7.37 3.307 7.37 7.372 0 4.065-3.306 7.371-7.37 7.371z" fill="#4C2A2A"/></svg>