<svg xmlns="http://www.w3.org/2000/svg" style="width:100%;height:100%" overflow="visible"><path fill="none" d="M0 0h424v356H0z"/><g clip-path="url(&quot;http://213.79.96.2/monitoring-krt/tab/1/card/1#id-1397&quot;)" aria-label="Chart"><path fill="none" d="M15 15h394v326H15z"/><g aria-hidden="true"><path d="M109.56 256.8h12m7.564-60.213l9.709 7.054m41.511-44.267l3.709 11.412m59.603-11.412l-3.709 11.412m54.929 25.801l-9.708 7.054M314.44 256.8h-12" fill="none" stroke="#000"/><text y="18.891" dy="-5.1" transform="translate(120.56 247.3)" aria-label="undefined%"><tspan>0%</tspan></text><text y="18.891" dy="-5.1" transform="translate(128.496 202.076)" aria-label="undefined%"><tspan>20%</tspan></text><text y="18.891" dy="-5.1" transform="translate(169.561 174.126)" aria-label="undefined%"><tspan>40%</tspan></text><text y="18.891" dy="-5.1" transform="translate(221.439 174.126)" aria-label="undefined%"><tspan>60%</tspan></text><text y="18.891" dy="-5.1" transform="translate(263.409 202.076)" aria-label="undefined%"><tspan>80%</tspan></text><text y="18.891" dy="-5.1" transform="translate(279.44 247.3)" aria-label="undefined%"><tspan>100%</tspan></text><path d="M109.06 256.3a102.44 102.44 0 01204.88 0" stroke="#000" fill="none" pointer-events="none"/></g><g aria-hidden="true"><path d="M101.68 256.8H54.4A157.6 157.6 0 01202.104 99.511l2.969 47.187A110.32 110.32 0 00101.68 256.8" fill="#333" pointer-events="none"/><path d="M101.68 256.8H54.4" stroke="#000" stroke-opacity=".15" fill="none"/><path d="M205.073 146.698l-2.969-47.187A157.6 157.6 0 01369.6 256.8h-47.28a110.32 110.32 0 00-117.247-110.102" fill="#ececec" pointer-events="none"/><path d="M205.073 146.698l-2.969-47.187" stroke="#000" stroke-opacity=".15" fill="none"/><path d="M54.4 256.8h-5M202.104 99.511l-.314-4.99" fill="none"/><path d="M204.536 217.792l-2.93-118.25.997-.062 11.913 117.684" fill="#888" stroke="#888"/><path d="M53.9 256.3a157.6 157.6 0 01315.2 0" fill="none" pointer-events="none"/></g><text y="33.063" dy="-8.927" transform="translate(183.5 223.8)" font-size="28" font-family="'TTNorms-Bold', Comfortaa-Bold, 'Source Sans Pro', Helvetica, sans-serif"><tspan>48%</tspan></text></g><g opacity=".4" aria-labelledby="id-1417-title" transform="translate(0 335)" filter="url(&quot;http://213.79.96.2/monitoring-krt/tab/1/card/1#filter-id-1417&quot;)" cursor="pointer"><g fill="none" stroke-width="1.8"><path d="M15 15h12c4.2 0 6.3-9 9-9s2.7 4.5 4.5 4.5c1.8 0 1.8-4.5 4.5-4.5s6 9 9 9h6" stroke="#3cabff"/><path d="M6 15h9c5.25 0 5.775-11.4 12-11.4S33.9 15 39.9 15H60" stroke="url(&quot;http://213.79.96.2/monitoring-krt/tab/1/card/1#gradient-id-1420&quot;)"/></g></g></svg>