<svg width="720" height="320" fill="none" xmlns="http://www.w3.org/2000/svg"><g opacity=".7"><path d="M559.998 239.992v3.289c1.77 42.659 36.9 76.709 80.001 76.709v-79.998h-80.001z" fill="#D71827"/><path d="M720 79.998h-80.001v79.997H720V79.998z" fill="#B91827"/><path d="M708.887 79.998h-27.735V91.11h19.859l-61.012 61.009v7.876h7.835l61.053-61.061v19.91H720V79.998h-11.113z" fill="#9B1827"/><path d="M720 159.995h-80.001v79.997c44.18 0 80.001-35.82 80.001-79.997zM440.373 79.998h15.701l-56.089 56.086v-15.7l40.388-40.386zm-.754 79.997l40.378-40.376v-15.71l-56.089 56.086h15.711zm32.522-79.997l-72.146 72.142v7.855h7.856l72.146-72.142v-7.855h-7.856z" fill="#D71827"/><path d="M160.002 239.992v7.855L87.857 319.99H80v-7.856l72.146-72.142h7.855zm-8.609 79.987l8.609-8.609v-15.7l-24.321 24.32h15.712v-.011zm-47.479 0h15.7l40.378-40.376v-15.7l-56.078 56.076zm-23.913-71.378v15.7l24.321-24.319H88.611L80 248.601zm0 31.767v15.7l56.089-56.086h-15.701l-40.388 40.386z" fill="#9B1827"/><path d="M160.002 304.269v-64.287H90.748c34.522 4.545 62.258 30.604 69.254 64.287z" fill="#B91827"/><path d="M170.728 159.995h69.265V90.722c-37.99 0-69.265 31.275-69.265 69.273z" fill="#D71827"/><path d="M204.507 219.474l35.486-59.48h-69.265c0 24.362 12.862 46.995 33.779 59.48z" fill="#D71827"/><path d="M201.291 192.096l38.702-32.112h-50.286a50.322 50.322 0 0011.584 32.112z" fill="#9B1827"/><path d="M231.205 188.2l8.788-28.216h-29.547c0 12.904 8.452 24.383 20.759 28.216z" fill="#9B1827"/><path d="M149.266 79.997v-.146c0-38.25-31.013-69.262-69.265-69.262v69.408h69.265zm101.463-.147v.147h69.265V10.59c-38.251 0-69.265 31.012-69.265 69.262zm69.276.148h-80.002v79.997h80.002V79.998z" fill="#D71827"/><path d="M240.003 90.722v69.262h69.266c0-37.987-31.265-69.262-69.266-69.262z" fill="#9B1827"/><path d="M399.995 79.998h-80.001v79.997h80.001V79.998z" fill="#B91827"/><path d="M141.673 239.992c-.053-34.018-27.641-61.574-61.672-61.574v61.574h61.672zm178.332-79.997h-80.002v79.997h80.002v-79.997z" fill="#9B1827"/><path d="M559.998 79.998h-80.001v79.997h80.001V79.998z" fill="#B91827"/><path d="M14.067 79.998H7.405c.074 39.967 32.617 72.456 72.596 72.456v-6.661c-36.314 0-65.86-29.504-65.934-65.795z" fill="#D71827"/><path d="M80.001 138.859v-21.177c-20.812 0-37.749-16.894-37.822-37.684H21.001c.073 32.468 26.51 58.861 59 58.861z" fill="#9B1827"/><path d="M61.744 188.664a9.175 9.175 0 10-4.217-17.857 9.175 9.175 0 004.217 17.857zM80.001 0H0v79.997h80.001V0z" fill="#D71827"/><path d="M5.216 79.85v.148h74.785V5.069c-41.3 0-74.785 33.484-74.785 74.782z" fill="#B91827"/><path d="M38.943 79.85c0-22.633 18.413-41.056 41.058-41.056V20.958c-32.47 0-58.896 26.414-58.896 58.893v.147h17.838v-.147z" fill="#9B1827"/><path d="M103.893 159.995h15.711l17.272-17.281-7.846-7.856-25.137 25.137zm56.109-79.997h-7.876l-72.125 72.121v7.876h7.835l72.166-72.163v-7.834zm-39.644 0l-40.357 40.354v15.7l56.058-56.054h-15.701z" fill="#D71827"/><path d="M88.218 82.143a9.174 9.174 0 00-6.82-11.037 9.175 9.175 0 106.82 11.037zm300.675-62.662H377.79v60.495h11.103V19.482z" fill="#9B1827"/><path d="M399.995 0h-11.102v79.976h11.102V0zm-40.127 79.978l11.103.04.27-75.462-11.103-.04-.27 75.462z" fill="#D71827"/><path d="M348.756 79.937l11.103.04.096-26.719-11.103-.04-.096 26.719z" fill="#9B1827"/><path d="M331.104 79.972h11.103V15.235h-11.103v64.737z" fill="#D71827"/><path d="M331.097 0h-11.103v79.976h11.103V0zM217.791 319.967h11.103v-60.496h-11.103v60.496z" fill="#9B1827"/><path d="M239.993 239.992h-11.102v79.977h11.102v-79.977zm-40.131 79.968l11.102.04.271-75.462-11.103-.04-.27 75.462z" fill="#D71827"/><path d="M188.761 319.919l11.102.039.096-26.718-11.103-.039-.095 26.718z" fill="#9B1827"/><path d="M171.108 319.966h11.102v-64.738h-11.102v64.738z" fill="#D71827"/><path d="M171.105 239.992h-11.103v79.977h11.103v-79.977zm99.305 48.356l49.595-48.356h-69.266a69.25 69.25 0 0019.671 48.356z" fill="#9B1827"/><path d="M276.045 239.992c0 24.11 19.838 43.947 43.949 43.947v-43.947h-43.949z" fill="#D71827"/><path d="M300.575 239.992c0 10.651 8.767 19.418 19.43 19.418v-19.418h-19.43z" fill="#9B1827"/><path d="M18.32 240.086v-.094H.093v.094c0 44.126 35.77 79.904 79.907 79.904v-18.224c-34.062-.011-61.682-27.619-61.682-61.68z" fill="#D71827"/><path d="M18.33 239.992v.094c0 34.061 27.61 61.68 61.682 61.68v-61.774H18.33zm461.667 0h-80.002v79.997h80.002v-79.997z" fill="#9B1827"/><path d="M479.997 267.119v-27.137h-25.379c0 14.411 11.207 26.194 25.379 27.137z" fill="#B91827"/><path d="M479.997 319.937v-79.945h-78.169c0 43.559 34.837 78.971 78.169 79.945z" fill="#B91827"/><path d="M479.997 299.262v-59.28h-57.493c0 32.154 25.578 58.317 57.493 59.28z" fill="#D71827"/><path d="M434.633 25.995a9.172 9.172 0 01-9.175 9.175 9.172 9.172 0 01-9.175-9.175 9.172 9.172 0 019.175-9.174 9.172 9.172 0 019.175 9.174z" fill="#9B1827"/><path d="M559.997 0h-80.001v79.997h80.001V0z" fill="#B91827"/><path d="M520.374 0h15.701l-56.099 56.097v-15.7L520.374 0zm-.817 80.06l40.483-40.48V23.87l-56.194 56.19h15.711zM552.142 0l-72.166 72.163v7.897h7.813L560.04 7.813V0h-7.898z" fill="#D71827"/><path d="M639.999 0h-80.001v79.997h80.001V0z" fill="#9B1827"/><path d="M560.123 10.861h-.125v69.126h69.391c-.074-38.187-31.056-69.126-69.266-69.126z" fill="#B91827"/><path d="M320.002 239.985h80.001v-79.998h-80.001v79.998z" fill="#9B1827"/><path d="M331.065 159.994h-11.071v79.998h11.071v-79.998z" fill="#D71827"/><path d="M342.168 159.994h-11.103v79.998h11.103v-79.998z" fill="#B91827"/><path d="M382.535 220.679c5.834 0 10.547-1.634 14.13-4.902 1.372-1.257 2.482-2.629 3.33-4.126v-16.193c-.869-1.56-2.011-3.006-3.446-4.346-3.655-3.415-8.274-5.122-13.857-5.122h-23.273v25.147h-5.991v9.542h5.991v4.399h-5.991v9.573h5.991v5.331h11.951v-5.331h16.737v-9.573H371.37v-4.399h11.165zm-11.165-24.288h11.176c2.178 0 3.98.712 5.415 2.136 1.424 1.425 2.136 3.226 2.136 5.415 0 2.021-.712 3.729-2.136 5.122-1.425 1.393-3.226 2.084-5.415 2.084H371.37v-14.757z" fill="#D71827"/><path d="M634.071 211.787c2.115 0 4.084.366 5.928 1.068v11.489a6.864 6.864 0 00-1.027-1.33c-1.309-1.309-2.943-1.958-4.901-1.958-1.959 0-3.593.649-4.902 1.958-1.31 1.309-1.959 2.943-1.959 4.902 0 1.958.649 3.592 1.959 4.902 1.309 1.309 2.943 1.958 4.902 1.958 1.958 0 3.592-.649 4.901-1.958a6.84 6.84 0 001.027-1.331v8.494h-16.822c-.293-.261-.586-.513-.869-.796-3.268-3.267-4.902-7.017-4.902-11.259 0-4.241 1.634-7.991 4.902-11.259 3.268-3.247 7.185-4.88 11.763-4.88zm-52.392-11.741c-3.268-3.268-4.902-7.028-4.902-11.28 0-4.253 1.634-8.002 4.902-11.26 3.268-3.246 7.185-4.87 11.763-4.87 4.577 0 8.494 1.624 11.762 4.87 3.268 3.247 4.902 7.007 4.902 11.26 0 4.252-1.634 8.012-4.902 11.28-3.268 3.267-7.185 4.901-11.762 4.901-4.578 0-8.495-1.634-11.763-4.901zm4.902-11.28c0 1.958.649 3.592 1.959 4.901 1.309 1.309 2.943 1.959 4.902 1.959 1.958 0 3.592-.65 4.901-1.959 1.31-1.309 1.959-2.943 1.959-4.901 0-1.959-.649-3.593-1.959-4.902-1.309-1.309-2.943-1.959-4.901-1.959-1.959 0-3.593.65-4.902 1.959-1.31 1.309-1.959 2.943-1.959 4.902zm-11.899 51.226h14.821l50.496-50.493v-14.82l-65.317 65.313z" fill="#9B1827"/><path d="M479.998 239.985H560v-79.998h-80.002v79.998z" fill="#D71827"/><path d="M559.998 160.529l-29.914 30.028-6.369-6.337-8.012-7.991-10.558 10.599-2.399-2.388h.011l-8.568-8.536-14.192 14.234v17.145l14.213-14.276 10.956 10.914 2.346-2.346.01.01 8.212-8.253 14.308 14.255.084-.084.073.073 29.799-29.912v-17.135z" fill="#B91827"/><path d="M559.998 188.64l-31.14 31.253-6.368-6.336-8.013-7.981-10.558 10.589-2.398-2.388h.01l-8.578-8.536-12.956 13.008v17.135l12.987-13.03 10.956 10.903 2.347-2.346.01.011 8.212-8.243 14.307 14.244.084-.084.073.074 31.025-31.138V188.64z" fill="#9B1827"/></g></svg>