<svg width="40" height="40" fill="none" xmlns="http://www.w3.org/2000/svg"><circle cx="19" cy="20" r="18" fill="#FFEBEC"/><path d="M24.67 17.14h-1.054a2.636 2.636 0 00-2.632 2.633v1.58a3.162 3.162 0 003.159 3.159 3.162 3.162 0 003.159-3.16v-1.579a2.636 2.636 0 00-2.633-2.633zm1.579 4.213a2.108 2.108 0 01-2.106 2.106 2.108 2.108 0 01-2.106-2.106v-1.58c0-.87.708-1.58 1.58-1.58h1.052c.871 0 1.58.71 1.58 1.58v1.58zm-.527-8.951v1.58a3.162 3.162 0 003.16 3.159 3.162 3.162 0 003.159-3.16v-1.58a2.636 2.636 0 00-2.633-2.632h-1.053a2.636 2.636 0 00-2.633 2.633zm1.053 0c0-.871.71-1.58 1.58-1.58h1.053c.871 0 1.58.709 1.58 1.58v1.58a2.108 2.108 0 01-2.106 2.105 2.108 2.108 0 01-2.106-2.106v-1.58zm6.845 12.11a3.162 3.162 0 003.16-3.16v-1.579a2.636 2.636 0 00-2.633-2.633h-1.053a2.636 2.636 0 00-2.633 2.633v1.58a3.162 3.162 0 003.16 3.159zm-2.106-4.739c0-.87.709-1.58 1.58-1.58h1.053c.87 0 1.58.71 1.58 1.58v1.58a2.108 2.108 0 01-2.106 2.106 2.108 2.108 0 01-2.107-2.106v-1.58zm-5.77 5.799a.55.55 0 00-.526.375l-1.075 3.58-1.075-3.58a.527.527 0 00-.504-.375c-1.826-.005-3.17.39-3.951 1.17-.516.514-.788 1.2-.788 1.982v4.739a.527.527 0 001.053 0v-4.739c0-.504.16-.92.479-1.237.518-.518 1.487-.811 2.817-.856l1.464 4.877a.527.527 0 001.01 0l1.464-4.877c1.329.045 2.298.338 2.817.856.318.317.48.733.48 1.237v4.739a.527.527 0 001.052 0v-4.739c0-.782-.273-1.468-.788-1.982-.778-.777-2.1-1.17-3.928-1.17zm-6.34-8.432a3.162 3.162 0 003.16-3.159v-1.58A2.636 2.636 0 0019.93 9.77h-1.053a2.636 2.636 0 00-2.633 2.633v1.58a3.162 3.162 0 003.159 3.159zm-2.106-4.738c0-.871.709-1.58 1.58-1.58h1.053c.87 0 1.58.709 1.58 1.58v1.58a2.108 2.108 0 01-2.107 2.105 2.108 2.108 0 01-2.106-2.106v-1.58zm21.852 14.34c-.777-.777-2.099-1.17-3.928-1.17-.232.005-.457.145-.526.375l-1.076 3.58-1.075-3.58a.527.527 0 00-.503-.375c-.367.006-.736.015-1.077.048a.527.527 0 00-.474.574.53.53 0 00.574.474 9.22 9.22 0 01.586-.037l1.465 4.877a.527.527 0 001.009 0l1.465-4.877c1.329.045 2.298.338 2.817.856.318.317.479.733.479 1.237v3.686a.527.527 0 001.053 0v-3.686c0-.782-.273-1.468-.788-1.982zm-24.485-2.23a3.162 3.162 0 003.16-3.16v-1.579a2.636 2.636 0 00-2.633-2.633h-1.053a2.636 2.636 0 00-2.633 2.633v1.58a3.162 3.162 0 003.16 3.159zm-2.106-4.739c0-.87.709-1.58 1.58-1.58h1.053c.87 0 1.58.71 1.58 1.58v1.58a2.108 2.108 0 01-2.107 2.106 2.108 2.108 0 01-2.106-2.106v-1.58zm4.791 5.849a11.3 11.3 0 00-1.088-.05.541.541 0 00-.521.375l-1.076 3.58-1.075-3.58a.527.527 0 00-.503-.375c-1.866-.005-3.171.39-3.952 1.17-.515.514-.788 1.2-.788 1.982v3.686a.527.527 0 001.053 0v-3.686c0-.504.161-.92.48-1.237.518-.518 1.486-.811 2.816-.856l1.465 4.878a.527.527 0 001.009 0l1.464-4.878c.214.007.418.02.61.04a.527.527 0 00.105-1.048z" fill="#4C2A2A"/></svg>