<svg width="20" height="20" fill="none" xmlns="http://www.w3.org/2000/svg"><path d="M17.07 5.04h-.547V2.93A2.933 2.933 0 0013.593 0H6.407a2.933 2.933 0 00-2.93 2.93v2.11H2.93A2.933 2.933 0 000 7.968v4.687a2.933 2.933 0 002.93 2.93h.547v2.656c0 .97.788 1.758 1.757 1.758h9.532a1.76 1.76 0 001.757-1.758v-2.656h.547a2.933 2.933 0 002.93-2.93V7.97a2.933 2.933 0 00-2.93-2.93zM4.648 2.93c0-.97.789-1.758 1.758-1.758h7.188a1.76 1.76 0 011.758 1.758v2.11H4.648V2.93zm10.704 15.312a.587.587 0 01-.586.586H5.234a.587.587 0 01-.586-.586v-5.781h10.704v5.781zm3.476-5.586a1.76 1.76 0 01-1.758 1.758h-.547v-1.953h.352a.586.586 0 100-1.172H3.125a.586.586 0 100 1.172h.352v1.953H2.93a1.76 1.76 0 01-1.758-1.758V7.97c0-.97.788-1.758 1.758-1.758h14.14c.97 0 1.758.788 1.758 1.758v4.687z" fill="#333"/><path d="M11.563 13.79H8.437a.586.586 0 100 1.17h3.126a.586.586 0 100-1.17zm0 2.5H8.437a.586.586 0 100 1.17h3.126a.586.586 0 100-1.17zM5 7.54H3.125a.586.586 0 000 1.17H5a.586.586 0 000-1.17z" fill="#333"/></svg>