<svg width="424" height="311" fill="none" xmlns="http://www.w3.org/2000/svg"><path d="M285.815 255.953c-.769-.77-1.154-1.705-1.154-2.804 0-1.099.385-2.034 1.154-2.804.77-.77 1.705-1.155 2.804-1.155.39 0 .765.056 1.123.167.358.107.653.238.886.392.236.154.442.31.618.467.179.158.308.292.386.403l.124.167-.553.494a1.795 1.795 0 00-.097-.14 2.795 2.795 0 00-.301-.317 3.058 3.058 0 00-.515-.397 3.08 3.08 0 00-.726-.322 3.053 3.053 0 00-.945-.146c-.881 0-1.624.307-2.229.919-.605.612-.908 1.37-.908 2.272 0 .902.303 1.66.908 2.272.605.612 1.348.918 2.229.918.33 0 .645-.044.945-.134.301-.093.55-.204.747-.333.201-.129.376-.256.526-.381.151-.129.258-.242.323-.339l.102-.134.548.5c-.029.043-.074.1-.135.171a4.722 4.722 0 01-.392.376c-.2.183-.413.346-.639.489a3.798 3.798 0 01-.892.387 3.874 3.874 0 01-1.133.166c-1.099 0-2.034-.385-2.804-1.154zm13.417-6.655V257h-.821v-6.929h-3.304v1.536c0 1.136-.048 2.077-.145 2.826-.093.744-.24 1.308-.44 1.692-.197.379-.417.639-.661.778-.24.136-.539.204-.897.204a2.48 2.48 0 01-.354-.026 1.496 1.496 0 01-.263-.06l-.097-.021v-.827c.218.071.419.109.602.113a.97.97 0 00.574-.167c.161-.111.312-.324.451-.639.14-.315.242-.793.307-1.434.068-.641.102-1.454.102-2.439v-2.309h4.946zm3.143 6.934h4.565V257h-5.393v-7.702h5.28v.773h-4.452v2.53h3.571v.768h-3.571v2.863zm5.054 0h.44a1.38 1.38 0 00.145-.145c.065-.072.176-.238.333-.5a5.34 5.34 0 00.419-.875c.122-.322.231-.759.328-1.311.1-.555.15-1.153.15-1.794v-2.309h4.732v6.934h.935v2.417h-.828V257h-5.827v1.649h-.827v-2.417zm2.642-4.625c0 .623-.046 1.211-.139 1.762-.093.552-.204.994-.333 1.327a8.04 8.04 0 01-.382.87c-.129.243-.241.413-.338.51l-.129.156h4.399v-6.161h-3.078v1.536zm8.744 2.203l2.09-4.512h.881l-2.863 5.999c-.315.659-.636 1.127-.962 1.402-.325.272-.757.408-1.294.408-.118 0-.236-.009-.355-.026a1.348 1.348 0 01-.257-.06l-.102-.021v-.768c.182.072.402.107.66.107.344 0 .616-.078.817-.236.204-.158.408-.426.612-.806l.333-.607c-.236-.447-.684-1.289-1.343-2.524a470.383 470.383 0 01-1.52-2.868h.881l2.422 4.512zm5.119-4.512v3.41h1.483a3.995 3.995 0 011.219-2.492c.705-.684 1.545-1.026 2.519-1.026 1.027 0 1.908.382 2.642 1.144.734.763 1.101 1.701 1.101 2.815 0 1.114-.367 2.052-1.101 2.814-.734.763-1.615 1.144-2.642 1.144-.981 0-1.83-.347-2.546-1.042-.713-.698-1.11-1.559-1.192-2.583h-1.483V257h-.827v-7.702h.827zm3.153 1.563c-.562.601-.843 1.364-.843 2.288 0 .924.281 1.686.843 2.288.566.602 1.255.902 2.068.902.816 0 1.505-.3 2.068-.902.565-.602.848-1.364.848-2.288 0-.924-.283-1.687-.848-2.288-.563-.602-1.252-.903-2.068-.903-.813 0-1.502.301-2.068.903zm7.621 6.139v-7.702h.828v6.934h3.19v-6.934h.822v6.934h3.19v-6.934h.827v6.934h.989v2.417h-.827V257h-9.019zm17.602 0h-.822v-6.214L346.756 257h-.714v-7.702h.827v6.22l4.726-6.22h.715V257zm6.52-9.158c-.272.276-.628.414-1.069.414-.44 0-.798-.138-1.074-.414-.276-.275-.414-.634-.414-1.074h.607c0 .251.085.46.253.628a.844.844 0 00.623.253c.251 0 .46-.084.628-.253a.842.842 0 00.258-.628h.602c0 .44-.138.799-.414 1.074zm2.063 9.158h-.822v-6.214L355.339 257h-.714v-7.702h.827v6.22l4.726-6.22h.715V257zm9.689-6.655c.77.77 1.155 1.705 1.155 2.804 0 1.099-.385 2.034-1.155 2.804-.77.769-1.704 1.154-2.804 1.154a3.924 3.924 0 01-2.03-.558 5.703 5.703 0 01-.634-.467 2.743 2.743 0 01-.397-.403l-.129-.161.548-.5c.021.036.055.084.102.145.05.057.157.161.322.312.165.15.34.284.526.402.19.119.437.226.742.323.304.093.621.139.95.139.835 0 1.545-.272 2.133-.816a3.132 3.132 0 001.004-2.041h-4.071v-.774h4.071c-.111-.791-.453-1.446-1.026-1.965-.573-.523-1.276-.785-2.111-.785-.329 0-.642.047-.94.14-.297.09-.542.199-.735.328-.19.129-.357.258-.5.386-.143.129-.247.24-.311.334l-.097.134-.553-.494a2.31 2.31 0 01.123-.167c.057-.071.183-.199.376-.381.197-.186.407-.351.629-.494.225-.144.519-.271.88-.382a3.734 3.734 0 011.128-.172c1.1 0 2.034.385 2.804 1.155zm1.81-1.047h5.667v.773h-2.423V257h-.822v-6.929h-2.422v-.773zm10.549 4.785l-1.483-3.63-1.487 3.63h2.97zm.333.774h-3.631l-.881 2.143h-.881l3.191-7.702h.768l3.19 7.702h-.875l-.881-2.143zm9.131-5.559V257h-.827v-6.929h-4.286V257h-.828v-7.702h5.941z" fill="#7D7D7D"/><path d="M285.312 293.227c-.593-.598-.89-1.299-.89-2.104 0-.809.297-1.512.89-2.109.598-.598 1.301-.897 2.11-.897.449 0 .867.098 1.254.293.386.192.664.383.832.574l.252.276-.78.779a1.65 1.65 0 00-.181-.228c-.078-.094-.252-.219-.522-.375a1.648 1.648 0 00-.855-.235c-.488 0-.912.186-1.272.557-.355.371-.533.826-.533 1.365 0 .535.178.988.533 1.359.36.372.784.557 1.272.557.305 0 .59-.076.855-.228.27-.153.463-.301.58-.446l.182-.222.779.779a5.414 5.414 0 01-.105.135c-.047.054-.149.15-.305.287-.156.133-.32.252-.492.357a3.443 3.443 0 01-.668.287 2.738 2.738 0 01-.826.129c-.809 0-1.512-.297-2.11-.89zm5.104-3.909v-1.078h5.156v1.078h-1.98V294h-1.196v-4.682h-1.98zm9.293 4.799c-.215 0-.424-.025-.627-.076a2.454 2.454 0 01-.521-.187 4.331 4.331 0 01-.387-.235 2.978 2.978 0 01-.24-.193l-.082-.088v3.182h-1.202v-8.28h1.202v.662c.054-.054.13-.127.228-.216.102-.09.315-.207.639-.352a2.4 2.4 0 01.99-.217c.762 0 1.422.293 1.98.879.563.582.844 1.289.844 2.121 0 .832-.281 1.541-.844 2.127-.558.582-1.218.873-1.98.873zm1.096-4.353c-.352-.375-.756-.563-1.213-.563-.457 0-.862.188-1.213.563a1.913 1.913 0 00-.527 1.359c0 .527.175.979.527 1.354.351.375.756.562 1.213.562.457 0 .861-.187 1.213-.562.351-.375.527-.827.527-1.354 0-.531-.176-.984-.527-1.359zm6.949 2.718c.355-.371.533-.824.533-1.359 0-.539-.178-.994-.533-1.365-.356-.371-.777-.557-1.266-.557-.488 0-.912.186-1.271.557-.356.371-.533.826-.533 1.365 0 .535.177.988.533 1.359.359.372.783.557 1.271.557.489 0 .91-.185 1.266-.557zm-3.375.745c-.594-.598-.891-1.299-.891-2.104 0-.809.297-1.512.891-2.109.598-.598 1.301-.897 2.109-.897.809 0 1.51.299 2.104.897.597.597.896 1.3.896 2.109 0 .805-.299 1.506-.896 2.104-.594.593-1.295.89-2.104.89-.808 0-1.511-.297-2.109-.89zm10.629-4.987h1.078V294h-1.201v-3.779l-3 3.779h-1.078v-5.76h1.201v3.78l3-3.78zm2.162 1.078v-1.078h5.156v1.078h-1.98V294h-1.196v-4.682h-1.98zm11.572 2.221h-4.5c.063.406.262.758.598 1.055.34.297.742.445 1.207.445.336 0 .648-.076.937-.228.293-.153.5-.301.621-.446l.182-.222.779.779c-.023.031-.06.076-.111.135a3.89 3.89 0 01-.82.644 3.65 3.65 0 01-.703.287c-.286.086-.58.129-.885.129-.817 0-1.522-.299-2.115-.896a2.98 2.98 0 01-.885-2.162c0-.809.287-1.5.861-2.075.578-.578 1.27-.867 2.074-.867.809 0 1.481.27 2.016.809.539.535.809 1.207.809 2.015l-.065.598zm-2.76-2.396c-.433 0-.798.128-1.095.386a1.87 1.87 0 00-.592.991h3.334a1.634 1.634 0 00-.545-.991c-.293-.258-.66-.386-1.102-.386zm4.799-.903h4.442V294h-1.202v-4.682h-2.039v.604c0 1.098-.087 1.965-.263 2.601-.172.633-.395 1.057-.668 1.272-.27.215-.619.322-1.049.322a2.199 2.199 0 01-.615-.094l-.106-.023v-1.143c.16.039.299.061.416.065.246 0 .44-.067.58-.199.145-.133.264-.426.358-.879.097-.457.146-1.098.146-1.922v-1.682zm7.324 4.74h1.319a.927.927 0 00.685-.275.93.93 0 00.276-.685.93.93 0 00-.276-.686.927.927 0 00-.685-.275h-1.319v1.921zm2.883-2.378c.399.371.598.845.598 1.423 0 .575-.199 1.047-.598 1.418-.394.371-.916.557-1.564.557h-2.52v-5.76h1.201v1.799h1.319c.648 0 1.17.188 1.564.563zm2.45 2.625c-.594-.598-.891-1.299-.891-2.104 0-.809.297-1.512.891-2.109.597-.598 1.3-.897 2.109-.897.449 0 .867.098 1.254.293.387.192.664.383.832.574l.252.276-.78.779a1.65 1.65 0 00-.181-.228c-.078-.094-.252-.219-.522-.375a1.648 1.648 0 00-.855-.235c-.488 0-.912.186-1.272.557-.355.371-.533.826-.533 1.365 0 .535.178.988.533 1.359.36.372.784.557 1.272.557.305 0 .59-.076.855-.228.27-.153.463-.301.58-.446l.182-.222.779.779a5.414 5.414 0 01-.105.135c-.047.054-.149.15-.305.287-.156.133-.32.252-.492.357a3.443 3.443 0 01-.668.287 2.738 2.738 0 01-.826.129c-.809 0-1.512-.297-2.109-.89zm5.103-3.909v-1.078h5.156v1.078h-1.98V294h-1.196v-4.682h-1.98zm6.234-1.078h2.76c.551 0 .988.143 1.313.428.324.281.486.639.486 1.072 0 .246-.055.471-.164.674-.106.199-.215.338-.328.416l-.164.111c.023.008.056.022.099.041.043.02.121.071.235.153.113.078.211.166.293.263.086.094.162.223.228.387.071.164.106.342.106.533 0 .496-.178.901-.534 1.213-.351.313-.834.469-1.447.469h-2.883v-5.76zm2.883 3.182h-1.681v1.558h1.681c.238 0 .428-.07.569-.21.14-.141.211-.331.211-.569a.775.775 0 00-.217-.551.742.742 0 00-.563-.228zm.317-1.119a.597.597 0 00.164-.44c0-.187-.055-.334-.164-.439a.593.593 0 00-.44-.164h-1.558v1.201h1.558a.61.61 0 00.44-.158zm6.884 2.179a1.89 1.89 0 00.534-1.359c0-.539-.178-.994-.534-1.365-.355-.371-.777-.557-1.265-.557-.489 0-.912.186-1.272.557-.355.371-.533.826-.533 1.365 0 .535.178.988.533 1.359.36.372.783.557 1.272.557.488 0 .91-.185 1.265-.557zm-3.375.745c-.593-.598-.89-1.299-.89-2.104 0-.809.297-1.512.89-2.109.598-.598 1.301-.897 2.11-.897.808 0 1.51.299 2.103.897.598.597.897 1.3.897 2.109 0 .805-.299 1.506-.897 2.104-.593.593-1.295.89-2.103.89-.809 0-1.512-.297-2.11-.89zm-72.796 13.255c.355-.371.533-.824.533-1.359 0-.539-.178-.994-.533-1.365-.356-.371-.778-.557-1.266-.557s-.912.186-1.272.557c-.355.371-.533.826-.533 1.365 0 .535.178.988.533 1.359.36.372.784.557 1.272.557s.91-.185 1.266-.557zm-3.376.745c-.593-.598-.89-1.299-.89-2.104 0-.809.297-1.512.89-2.109.598-.598 1.301-.897 2.11-.897.808 0 1.51.299 2.103.897.598.597.897 1.3.897 2.109 0 .805-.299 1.506-.897 2.104-.593.593-1.295.89-2.103.89-.809 0-1.512-.297-2.11-.89zm12.188-2.045c0 .808-.285 1.5-.855 2.074-.567.574-1.241.861-2.022.861-.902 0-1.629-.322-2.18-.967-.547-.648-.82-1.586-.82-2.812 0-1.399.26-2.447.779-3.147.52-.699 1.26-1.129 2.221-1.289.426-.07.807-.16 1.143-.269.339-.11.574-.201.703-.276l.193-.117.539.903a.86.86 0 01-.146.134c-.071.059-.315.164-.733.317-.414.152-.941.281-1.582.386-.551.09-.994.319-1.33.686-.336.367-.533.859-.592 1.477a.678.678 0 01.082-.094c.043-.043.127-.115.252-.217a2.372 2.372 0 01.926-.492c.219-.067.44-.1.662-.1.727 0 1.367.291 1.922.873.559.578.838 1.268.838 2.069zm-4.061-1.325c-.332.356-.498.797-.498 1.325 0 .527.166.968.498 1.324.332.355.725.533 1.178.533.457 0 .852-.178 1.184-.533.332-.356.498-.797.498-1.324 0-.528-.166-.969-.498-1.325-.332-.359-.727-.539-1.184-.539-.453 0-.846.18-1.178.539zm10.12.745c.398.371.597.845.597 1.423 0 .575-.199 1.047-.597 1.418-.395.371-.916.557-1.565.557h-2.455v-4.682h-1.441v-1.078h2.636v1.799h1.26c.649 0 1.17.188 1.565.563zm-2.825 2.378h1.26a.93.93 0 00.686-.275.933.933 0 00.275-.685.933.933 0 00-.275-.686.93.93 0 00-.686-.275h-1.26v1.921zm10.078-1.441h-4.5c.063.406.262.758.598 1.055.34.297.742.445 1.207.445.336 0 .649-.076.938-.228.293-.153.5-.301.621-.446l.181-.222.78.779a3.438 3.438 0 01-.112.135c-.046.054-.15.15-.31.287a3.76 3.76 0 01-.51.357 3.65 3.65 0 01-.703.287c-.285.086-.58.129-.885.129-.816 0-1.521-.299-2.115-.896a2.98 2.98 0 01-.885-2.162c0-.809.287-1.5.862-2.075.578-.578 1.269-.867 2.074-.867.808 0 1.48.27 2.015.809.539.535.809 1.207.809 2.015l-.065.598zm-2.759-2.396c-.434 0-.799.128-1.096.386-.293.254-.49.584-.592.991h3.334a1.634 1.634 0 00-.545-.991c-.293-.258-.66-.386-1.101-.386zm9.24-.903l-2.221 2.403 2.397 3.357h-1.319l-1.857-2.578-.902.961V308h-1.202v-5.76h1.202v2.578l2.461-2.578h1.441zm.533 1.078v-1.078h5.156v1.078h-1.98V308h-1.195v-4.682h-1.981zm10.143 3.164c.355-.371.533-.824.533-1.359 0-.539-.178-.994-.533-1.365-.356-.371-.778-.557-1.266-.557s-.912.186-1.271.557c-.356.371-.534.826-.534 1.365 0 .535.178.988.534 1.359.359.372.783.557 1.271.557.488 0 .91-.185 1.266-.557zm-3.375.745c-.594-.598-.891-1.299-.891-2.104 0-.809.297-1.512.891-2.109.597-.598 1.301-.897 2.109-.897.809 0 1.51.299 2.104.897.597.597.896 1.3.896 2.109 0 .805-.299 1.506-.896 2.104-.594.593-1.295.89-2.104.89-.808 0-1.512-.297-2.109-.89zm6.427-4.987h2.76c.551 0 .989.143 1.313.428.324.281.486.639.486 1.072 0 .246-.055.471-.164.674-.105.199-.215.338-.328.416l-.164.111c.023.008.056.022.099.041.043.02.122.071.235.153.113.078.211.166.293.263.086.094.162.223.228.387.071.164.106.342.106.533 0 .496-.178.901-.533 1.213-.352.313-.834.469-1.448.469h-2.883v-5.76zm2.883 3.182h-1.681v1.558h1.681c.239 0 .428-.07.569-.21.14-.141.211-.331.211-.569a.775.775 0 00-.217-.551.742.742 0 00-.563-.228zm.317-1.119a.597.597 0 00.164-.44c0-.187-.055-.334-.164-.439a.593.593 0 00-.44-.164h-1.558v1.201h1.558a.61.61 0 00.44-.158z" fill="#000"/><path d="M142.22 249.298h5.667v.773h-2.423V257h-.821v-6.929h-2.423v-.773zm7.863 6.934h4.566V257h-5.393v-7.702h5.28v.773h-4.453v2.53h3.572v.768h-3.572v2.863zm7.037-2.589l3.958-4.345h1.042l-2.911 3.19 3.19 4.512h-.993l-2.75-3.905-1.536 1.649V257h-.828v-7.702h.828v4.345zm8.964.167l2.089-4.512h.881l-2.863 5.999c-.315.659-.635 1.127-.961 1.402-.326.272-.757.408-1.294.408-.119 0-.237-.009-.355-.026a1.362 1.362 0 01-.258-.06l-.102-.021v-.768c.183.072.403.107.661.107.344 0 .616-.078.816-.236.204-.158.408-.426.613-.806l.333-.607c-.237-.447-.684-1.289-1.343-2.524a419.615 419.615 0 01-1.52-2.868h.881l2.422 4.512zm4.291 3.19v-7.702h.828v6.934h3.19v-6.934h.822v6.934h3.19v-6.934h.827v6.934h.989v2.417h-.827V257h-9.019zm17.602 0h-.822v-6.214L182.423 257h-.715v-7.702h.828v6.22l4.726-6.22h.715V257zm6.52-9.158c-.272.276-.628.414-1.069.414-.44 0-.798-.138-1.074-.414-.276-.275-.414-.634-.414-1.074h.607c0 .251.085.46.253.628a.844.844 0 00.623.253c.251 0 .46-.084.628-.253a.842.842 0 00.258-.628h.602c0 .44-.138.799-.414 1.074zM196.56 257h-.822v-6.214L191.006 257h-.714v-7.702h.827v6.22l4.726-6.22h.715V257zm9.689-6.655c.77.77 1.155 1.705 1.155 2.804 0 1.099-.385 2.034-1.155 2.804-.77.769-1.704 1.154-2.804 1.154a3.924 3.924 0 01-2.03-.558 5.703 5.703 0 01-.634-.467 2.743 2.743 0 01-.397-.403l-.129-.161.548-.5c.021.036.055.084.102.145.05.057.157.161.322.312.165.15.34.284.526.402.19.119.437.226.742.323.304.093.621.139.95.139.835 0 1.545-.272 2.133-.816a3.132 3.132 0 001.004-2.041h-4.071v-.774h4.071c-.111-.791-.453-1.446-1.026-1.965-.573-.523-1.276-.785-2.111-.785-.329 0-.642.047-.94.14-.297.09-.542.199-.735.328-.19.129-.357.258-.5.386-.143.129-.247.24-.312.334l-.096.134-.553-.494a2.31 2.31 0 01.123-.167c.057-.071.183-.199.376-.381.197-.186.407-.351.629-.494.225-.144.519-.271.88-.382a3.734 3.734 0 011.128-.172c1.1 0 2.034.385 2.804 1.155zm1.81-1.047h5.667v.773h-2.423V257h-.822v-6.929h-2.422v-.773zm10.549 4.785l-1.483-3.63-1.487 3.63h2.97zm.333.774h-3.631l-.881 2.143h-.881l3.191-7.702h.768l3.19 7.702h-.875l-.881-2.143zm9.131-5.559V257h-.827v-6.929h-4.287V257h-.827v-7.702h5.941z" fill="#7D7D7D"/><path d="M145.838 294.117c-.215 0-.424-.025-.627-.076a2.485 2.485 0 01-.522-.187 4.453 4.453 0 01-.386-.235 3.235 3.235 0 01-.241-.193l-.082-.088v3.182h-1.201v-8.28h1.201v.662c.055-.054.131-.127.229-.216.102-.09.314-.207.639-.352a2.4 2.4 0 01.99-.217c.762 0 1.422.293 1.98.879.563.582.844 1.289.844 2.121 0 .832-.281 1.541-.844 2.127-.558.582-1.218.873-1.98.873zm1.096-4.353c-.352-.375-.756-.563-1.213-.563-.457 0-.862.188-1.213.563a1.914 1.914 0 00-.528 1.359c0 .527.176.979.528 1.354.351.375.756.562 1.213.562.457 0 .861-.187 1.213-.562.351-.375.527-.827.527-1.354 0-.531-.176-.984-.527-1.359zm7.664 4.236h-1.202v-.598a2.21 2.21 0 01-.304.252c-.11.078-.229.151-.358.217a2.655 2.655 0 01-.486.17 2.334 2.334 0 01-.592.076c-.586 0-1.072-.17-1.459-.51-.386-.339-.58-.728-.58-1.166 0-.472.149-.869.445-1.189.301-.32.711-.523 1.231-.609l2.103-.364a1 1 0 00-.339-.767c-.223-.207-.51-.311-.862-.311a1.79 1.79 0 00-.832.194c-.246.125-.416.251-.509.38l-.159.205-.779-.779c.023-.031.055-.07.094-.117.043-.051.135-.137.275-.258a3.49 3.49 0 01.457-.334c.16-.097.371-.183.633-.258.266-.078.539-.117.82-.117.703 0 1.28.209 1.729.627.449.414.674.926.674 1.535V294zm-2.76-.961c.488 0 .869-.144 1.142-.434.278-.293.416-.709.416-1.248v-.117l-1.863.299a.936.936 0 00-.521.264.707.707 0 00-.2.515c0 .192.092.36.276.504.187.145.437.217.75.217zm8.279-3.299c0 .266-.074.498-.222.698-.145.199-.293.33-.446.392l-.228.111c.031.008.072.022.123.041.054.02.144.067.269.141.129.07.242.156.34.258.102.098.193.234.276.41.085.176.128.373.128.592 0 .48-.214.89-.644 1.23-.426.336-1.01.504-1.752.504-.281 0-.553-.035-.815-.105a2.883 2.883 0 01-.644-.252 4.262 4.262 0 01-.451-.293 2.323 2.323 0 01-.287-.258l-.082-.111.779-.78c.047.055.109.123.187.205.082.082.254.19.516.323.266.129.531.193.797.193.398 0 .697-.074.896-.223.204-.148.305-.334.305-.556 0-.223-.101-.408-.305-.557-.199-.148-.498-.223-.896-.223h-.662v-.96h.662c.312 0 .551-.061.715-.182a.573.573 0 00.246-.475.563.563 0 00-.246-.474c-.164-.125-.403-.188-.715-.188a1.8 1.8 0 00-.68.135 1.66 1.66 0 00-.486.269l-.152.135-.786-.779c.055-.063.135-.141.241-.234.105-.094.34-.219.703-.375.363-.157.75-.235 1.16-.235.664 0 1.189.16 1.576.481.387.32.58.701.58 1.142zm4.623 4.377c-.215 0-.424-.025-.627-.076a2.454 2.454 0 01-.521-.187 4.331 4.331 0 01-.387-.235 3.394 3.394 0 01-.24-.193l-.082-.088v3.182h-1.201v-8.28h1.201v.662c.055-.054.131-.127.228-.216.102-.09.315-.207.639-.352a2.4 2.4 0 01.99-.217c.762 0 1.422.293 1.981.879.562.582.843 1.289.843 2.121 0 .832-.281 1.541-.843 2.127-.559.582-1.219.873-1.981.873zm1.096-4.353c-.352-.375-.756-.563-1.213-.563-.457 0-.861.188-1.213.563a1.918 1.918 0 00-.527 1.359c0 .527.176.979.527 1.354.352.375.756.562 1.213.562.457 0 .861-.187 1.213-.562.352-.375.527-.827.527-1.354 0-.531-.175-.984-.527-1.359zm8.379 1.775h-4.5c.062.406.262.758.597 1.055.34.297.743.445 1.208.445.335 0 .648-.076.937-.228.293-.153.5-.301.621-.446l.182-.222.779.779c-.023.031-.06.076-.111.135-.047.054-.151.15-.311.287a3.76 3.76 0 01-.51.357 3.624 3.624 0 01-.703.287c-.285.086-.58.129-.884.129-.817 0-1.522-.299-2.116-.896a2.98 2.98 0 01-.884-2.162c0-.809.287-1.5.861-2.075.578-.578 1.269-.867 2.074-.867.809 0 1.481.27 2.016.809.539.535.808 1.207.808 2.015l-.064.598zm-2.76-2.396c-.434 0-.799.128-1.096.386a1.87 1.87 0 00-.591.991h3.334a1.64 1.64 0 00-.545-.991c-.293-.258-.661-.386-1.102-.386zm4.137 4.857v-5.76h1.201v4.682h2.098v-4.682h1.201v4.682h2.103v-4.682h1.196V294h-7.799zm14.818-2.461h-4.5c.063.406.262.758.598 1.055.34.297.742.445 1.207.445.336 0 .648-.076.937-.228.293-.153.5-.301.621-.446l.182-.222.779.779c-.023.031-.06.076-.111.135-.047.054-.15.15-.311.287-.16.133-.33.252-.509.357a3.65 3.65 0 01-.703.287c-.286.086-.58.129-.885.129-.817 0-1.522-.299-2.115-.896a2.98 2.98 0 01-.885-2.162c0-.809.287-1.5.861-2.075.578-.578 1.27-.867 2.074-.867.809 0 1.481.27 2.016.809.539.535.809 1.207.809 2.015l-.065.598zm-2.76-2.396c-.433 0-.798.128-1.095.386a1.87 1.87 0 00-.592.991h3.334a1.634 1.634 0 00-.545-.991c-.293-.258-.66-.386-1.102-.386zm5.338 2.455V294h-1.201v-5.76h1.201v2.28h2.819v-2.28h1.201V294h-1.201v-2.402h-2.819zm9.903-3.358h1.078V294h-1.201v-3.779l-3 3.779h-1.079v-5.76h1.202v3.78l3-3.78zm8.097 3.299h-4.5c.063.406.262.758.598 1.055.34.297.742.445 1.207.445.336 0 .648-.076.937-.228.293-.153.5-.301.622-.446l.181-.222.779.779c-.023.031-.06.076-.111.135a3.824 3.824 0 01-.82.644 3.65 3.65 0 01-.703.287c-.285.086-.58.129-.885.129-.816 0-1.522-.299-2.115-.896a2.98 2.98 0 01-.885-2.162c0-.809.287-1.5.861-2.075.578-.578 1.27-.867 2.075-.867.808 0 1.48.27 2.015.809.539.535.809 1.207.809 2.015l-.065.598zm-2.759-2.396c-.434 0-.799.128-1.096.386-.293.254-.49.584-.592.991h3.334a1.634 1.634 0 00-.545-.991c-.293-.258-.66-.386-1.101-.386zm7.74 2.455V294h-1.201v-5.76h1.201v2.28h2.818v-2.28h1.201V294h-1.201v-2.402h-2.818zM226.293 294h-1.201v-.598a2.261 2.261 0 01-.305.252 2.821 2.821 0 01-.357.217 2.641 2.641 0 01-.487.17 2.326 2.326 0 01-.591.076c-.586 0-1.073-.17-1.459-.51-.387-.339-.581-.728-.581-1.166 0-.472.149-.869.446-1.189.301-.32.711-.523 1.23-.609l2.104-.364a.997.997 0 00-.34-.767c-.223-.207-.51-.311-.861-.311-.305 0-.582.065-.832.194-.247.125-.416.251-.51.38l-.158.205-.78-.779.094-.117c.043-.051.135-.137.275-.258.145-.125.297-.236.458-.334.16-.097.371-.183.632-.258a2.9 2.9 0 01.821-.117c.703 0 1.279.209 1.728.627.449.414.674.926.674 1.535V294zm-2.76-.961c.488 0 .869-.144 1.143-.434.277-.293.416-.709.416-1.248v-.117l-1.863.299a.939.939 0 00-.522.264.707.707 0 00-.199.515c0 .192.092.36.275.504.188.145.438.217.75.217zm-80.221 14.188c-.593-.598-.89-1.299-.89-2.104 0-.809.297-1.512.89-2.109.598-.598 1.301-.897 2.11-.897.449 0 .867.098 1.254.293.386.192.664.383.832.574l.252.276-.78.779a1.65 1.65 0 00-.181-.228c-.078-.094-.252-.219-.522-.375a1.648 1.648 0 00-.855-.235c-.488 0-.912.186-1.272.557-.355.371-.533.826-.533 1.365 0 .535.178.988.533 1.359.36.372.784.557 1.272.557.305 0 .59-.076.855-.228.27-.153.463-.301.58-.446l.182-.222.779.779a5.414 5.414 0 01-.105.135c-.047.054-.149.15-.305.287-.156.133-.32.252-.492.357a3.443 3.443 0 01-.668.287 2.738 2.738 0 01-.826.129c-.809 0-1.512-.297-2.11-.89zm5.104-3.909v-1.078h5.156v1.078h-1.98V308h-1.196v-4.682h-1.98zm9.293 4.799c-.215 0-.424-.025-.627-.076a2.454 2.454 0 01-.521-.187 4.331 4.331 0 01-.387-.235 2.978 2.978 0 01-.24-.193l-.082-.088v3.182h-1.202v-8.28h1.202v.662c.054-.054.13-.127.228-.216.102-.09.315-.207.639-.352a2.4 2.4 0 01.99-.217c.762 0 1.422.293 1.98.879.563.582.844 1.289.844 2.121 0 .832-.281 1.541-.844 2.127-.558.582-1.218.873-1.98.873zm1.096-4.353c-.352-.375-.756-.563-1.213-.563-.457 0-.862.188-1.213.563a1.913 1.913 0 00-.527 1.359c0 .527.175.979.527 1.354.351.375.756.562 1.213.562.457 0 .861-.187 1.213-.562.351-.375.527-.827.527-1.354 0-.531-.176-.984-.527-1.359zm6.949 2.718c.355-.371.533-.824.533-1.359 0-.539-.178-.994-.533-1.365-.356-.371-.777-.557-1.266-.557-.488 0-.912.186-1.271.557-.356.371-.533.826-.533 1.365 0 .535.177.988.533 1.359.359.372.783.557 1.271.557.489 0 .91-.185 1.266-.557zm-3.375.745c-.594-.598-.891-1.299-.891-2.104 0-.809.297-1.512.891-2.109.598-.598 1.301-.897 2.109-.897.809 0 1.51.299 2.104.897.597.597.896 1.3.896 2.109 0 .805-.299 1.506-.896 2.104-.594.593-1.295.89-2.104.89-.808 0-1.511-.297-2.109-.89zm10.629-4.987h1.078V308h-1.201v-3.779l-3 3.779h-1.078v-5.76h1.201v3.78l3-3.78zm2.162 1.078v-1.078h5.156v1.078h-1.98V308h-1.196v-4.682h-1.98zm11.572 2.221h-4.5c.063.406.262.758.598 1.055.34.297.742.445 1.207.445.336 0 .648-.076.937-.228.293-.153.5-.301.621-.446l.182-.222.779.779c-.023.031-.06.076-.111.135a3.89 3.89 0 01-.82.644 3.65 3.65 0 01-.703.287c-.286.086-.58.129-.885.129-.817 0-1.522-.299-2.115-.896a2.98 2.98 0 01-.885-2.162c0-.809.287-1.5.861-2.075.578-.578 1.27-.867 2.074-.867.809 0 1.481.27 2.016.809.539.535.809 1.207.809 2.015l-.065.598zm-2.76-2.396c-.433 0-.798.128-1.095.386a1.87 1.87 0 00-.592.991h3.334a1.634 1.634 0 00-.545-.991c-.293-.258-.66-.386-1.102-.386zm4.799-.903h4.442V308h-1.202v-4.682h-2.039v.604c0 1.098-.087 1.965-.263 2.601-.172.633-.395 1.057-.668 1.272-.27.215-.619.322-1.049.322a2.199 2.199 0 01-.615-.094l-.106-.023v-1.143c.16.039.299.061.416.065.246 0 .44-.067.58-.199.145-.133.264-.426.358-.879.097-.457.146-1.098.146-1.922v-1.682zm7.324 4.74h1.319a.927.927 0 00.685-.275.93.93 0 00.276-.685.93.93 0 00-.276-.686.927.927 0 00-.685-.275h-1.319v1.921zm2.883-2.378c.399.371.598.845.598 1.423 0 .575-.199 1.047-.598 1.418-.394.371-.916.557-1.564.557h-2.52v-5.76h1.201v1.799h1.319c.648 0 1.17.188 1.564.563zm2.45 2.625c-.594-.598-.891-1.299-.891-2.104 0-.809.297-1.512.891-2.109.597-.598 1.3-.897 2.109-.897.449 0 .867.098 1.254.293.387.192.664.383.832.574l.252.276-.78.779a1.65 1.65 0 00-.181-.228c-.078-.094-.252-.219-.522-.375a1.648 1.648 0 00-.855-.235c-.488 0-.912.186-1.272.557-.355.371-.533.826-.533 1.365 0 .535.178.988.533 1.359.36.372.784.557 1.272.557.305 0 .59-.076.855-.228.27-.153.463-.301.58-.446l.182-.222.779.779a5.414 5.414 0 01-.105.135c-.047.054-.149.15-.305.287-.156.133-.32.252-.492.357a3.443 3.443 0 01-.668.287 2.738 2.738 0 01-.826.129c-.809 0-1.512-.297-2.109-.89zm5.103-3.909v-1.078h5.156v1.078h-1.98V308h-1.196v-4.682h-1.98zm6.234-1.078h2.76c.551 0 .988.143 1.313.428.324.281.486.639.486 1.072 0 .246-.055.471-.164.674-.106.199-.215.338-.328.416l-.164.111c.023.008.056.022.099.041.043.02.121.071.235.153.113.078.211.166.293.263.086.094.162.223.228.387.071.164.106.342.106.533 0 .496-.178.901-.534 1.213-.351.313-.834.469-1.447.469h-2.883v-5.76zm2.883 3.182h-1.681v1.558h1.681c.238 0 .428-.07.569-.21.14-.141.211-.331.211-.569a.775.775 0 00-.217-.551.742.742 0 00-.563-.228zm.317-1.119a.597.597 0 00.164-.44c0-.187-.055-.334-.164-.439a.593.593 0 00-.44-.164h-1.558v1.201h1.558a.61.61 0 00.44-.158zm6.884 2.179a1.89 1.89 0 00.534-1.359c0-.539-.178-.994-.534-1.365-.355-.371-.777-.557-1.265-.557-.489 0-.912.186-1.272.557-.355.371-.533.826-.533 1.365 0 .535.178.988.533 1.359.36.372.783.557 1.272.557.488 0 .91-.185 1.265-.557zm-3.375.745c-.593-.598-.89-1.299-.89-2.104 0-.809.297-1.512.89-2.109.598-.598 1.301-.897 2.11-.897.808 0 1.51.299 2.103.897.598.597.897 1.3.897 2.109 0 .805-.299 1.506-.897 2.104-.593.593-1.295.89-2.103.89-.809 0-1.512-.297-2.11-.89zm13.149-2.649l2.221-2.338h1.441l-2.221 2.403 2.403 3.357h-1.325l-1.857-2.578-.662.721V308h-1.195v-1.857l-.663-.721-1.857 2.578h-1.324l2.402-3.357-2.221-2.403h1.442l2.221 2.338v-2.338h1.195v2.338zm9.902-2.338l-2.221 2.403 2.397 3.357h-1.318l-1.858-2.578-.902.961V308h-1.201v-5.76h1.201v2.578l2.461-2.578h1.441zm2.631-2.642h1.02V308h-1.319v-6.357h-1.5v-.903c.504-.054.887-.174 1.149-.357.265-.188.482-.449.65-.785z" fill="#000"/><path d="M7.095 249.298V257h-.827v-6.929H1.982V257h-.827v-7.702h5.94zm2.31 0h2.916c.713 0 1.304.231 1.773.693.469.462.703 1.038.703 1.729 0 .688-.236 1.264-.709 1.73-.469.462-1.058.693-1.767.693h-2.09V257h-.826v-7.702zm2.916.773h-2.09v3.298h2.09c.498 0 .897-.15 1.198-.451.3-.301.451-.7.451-1.198s-.15-.897-.451-1.198c-.3-.3-.7-.451-1.198-.451zm5.065 6.161h4.566V257h-5.393v-7.702h5.28v.773h-4.453v2.53h3.572v.768h-3.572v2.863zm5.054 0h.44a1.28 1.28 0 00.146-.145c.064-.072.175-.238.333-.5.157-.261.297-.553.419-.875.122-.322.23-.759.328-1.311.1-.555.15-1.153.15-1.794v-2.309h4.732v6.934h.934v2.417h-.827V257h-5.827v1.649h-.828v-2.417zm2.643-4.625c0 .623-.046 1.211-.14 1.762-.093.552-.204.994-.333 1.327a7.949 7.949 0 01-.381.87c-.129.243-.242.413-.338.51l-.13.156h4.4v-6.161h-3.078v1.536zM38.828 257h-.822v-7.702h.822V257zm-4.62 0h-2.803v-7.702h.827v2.863h1.977c.712 0 1.303.231 1.772.693.469.461.704 1.038.704 1.729 0 .688-.235 1.262-.704 1.724-.47.462-1.06.693-1.773.693zm-1.976-.768h1.977c.497 0 .896-.15 1.197-.451.301-.301.451-.7.451-1.198 0-.501-.15-.902-.45-1.203-.298-.301-.697-.451-1.198-.451h-1.977v3.303zm7.75 0h.44a1.28 1.28 0 00.146-.145c.064-.072.175-.238.333-.5.157-.261.297-.553.419-.875.122-.322.23-.759.328-1.311.1-.555.15-1.153.15-1.794v-2.309h4.732v6.934h.934v2.417h-.827V257H40.81v1.649h-.828v-2.417zm2.643-4.625c0 .623-.047 1.211-.14 1.762-.093.552-.204.994-.333 1.327a7.93 7.93 0 01-.381.87c-.129.243-.242.413-.338.51l-.13.156h4.4v-6.161h-3.078v1.536zm8.744 2.203l2.09-4.512h.88l-2.862 5.999c-.316.659-.636 1.127-.962 1.402-.326.272-.757.408-1.294.408-.118 0-.237-.009-.355-.026a1.353 1.353 0 01-.258-.06l-.102-.021v-.768c.183.072.403.107.661.107.344 0 .616-.078.816-.236.205-.158.409-.426.613-.806l.333-.607c-.237-.447-.684-1.289-1.343-2.524a453.908 453.908 0 01-1.52-2.868h.88l2.423 4.512zm4.292 3.19v-7.702h.827v6.934h3.19v-6.934h.822v6.934h3.19v-6.934h.828v6.934h.988v2.417h-.827V257H55.66zm17.6 0h-.821v-6.214L67.708 257h-.714v-7.702h.827v6.22l4.726-6.22h.715V257zm6.521-9.158c-.272.276-.628.414-1.069.414-.44 0-.798-.138-1.074-.414-.276-.275-.413-.634-.413-1.074h.606c0 .251.085.46.253.628a.844.844 0 00.623.253.85.85 0 00.628-.253.842.842 0 00.258-.628h.602c0 .44-.138.799-.414 1.074zM81.845 257h-.822v-6.214L76.29 257h-.714v-7.702h.827v6.22l4.726-6.22h.715V257zm9.69-6.655c.769.77 1.154 1.705 1.154 2.804 0 1.099-.385 2.034-1.155 2.804-.77.769-1.704 1.154-2.803 1.154a3.92 3.92 0 01-1.128-.161 3.663 3.663 0 01-.903-.397 5.672 5.672 0 01-.634-.467 2.741 2.741 0 01-.397-.403l-.129-.161.548-.5c.021.036.055.084.102.145.05.057.157.161.322.312.165.15.34.284.527.402.19.119.436.226.74.323.305.093.622.139.952.139.834 0 1.545-.272 2.132-.816a3.133 3.133 0 001.004-2.041h-4.071v-.774h4.071a3.154 3.154 0 00-1.026-1.965c-.573-.523-1.276-.785-2.11-.785-.33 0-.643.047-.94.14-.298.09-.543.199-.736.328a4.79 4.79 0 00-.5.386c-.143.129-.247.24-.311.334l-.097.134-.553-.494c.028-.043.07-.099.123-.167.058-.071.183-.199.376-.381.197-.186.407-.351.629-.494a3.63 3.63 0 01.88-.382 3.73 3.73 0 011.129-.172c1.099 0 2.033.385 2.803 1.155zm1.81-1.047h5.666v.773h-2.423V257h-.821v-6.929h-2.423v-.773zm10.548 4.785l-1.482-3.63-1.488 3.63h2.97zm.333.774h-3.631l-.88 2.143h-.882l3.191-7.702h.768l3.19 7.702h-.875l-.881-2.143zm9.131-5.559V257h-.827v-6.929h-4.286V257h-.827v-7.702h5.94z" fill="#7D7D7D"/><path d="M3.838 294.117c-.215 0-.424-.025-.627-.076a2.467 2.467 0 01-.522-.187 4.435 4.435 0 01-.386-.235 3.275 3.275 0 01-.24-.193l-.083-.088v3.182H.78v-8.28h1.2v.662c.055-.054.131-.127.229-.216.102-.09.314-.207.639-.352a2.4 2.4 0 01.99-.217c.762 0 1.422.293 1.98.879.563.582.844 1.289.844 2.121 0 .832-.281 1.541-.844 2.127-.558.582-1.218.873-1.98.873zm1.096-4.353c-.352-.375-.756-.563-1.213-.563-.457 0-.862.188-1.213.563a1.916 1.916 0 00-.528 1.359c0 .527.176.979.528 1.354.351.375.756.562 1.213.562.457 0 .861-.187 1.213-.562a1.91 1.91 0 00.527-1.354c0-.531-.176-.984-.527-1.359zM12.598 294h-1.202v-.598c-.015.016-.043.041-.082.077a2.863 2.863 0 01-.58.392 2.647 2.647 0 01-.486.17 2.332 2.332 0 01-.592.076c-.586 0-1.072-.17-1.459-.51-.386-.339-.58-.728-.58-1.166 0-.472.149-.869.446-1.189.3-.32.71-.523 1.23-.609l2.104-.364a.998.998 0 00-.34-.767c-.223-.207-.51-.311-.862-.311a1.79 1.79 0 00-.832.194c-.246.125-.416.251-.51.38l-.158.205-.779-.779c.023-.031.055-.07.094-.117.043-.051.135-.137.275-.258a3.49 3.49 0 01.457-.334c.16-.097.371-.183.633-.258.266-.078.54-.117.82-.117.703 0 1.28.209 1.729.627.449.414.674.926.674 1.535V294zm-2.76-.961c.488 0 .869-.144 1.143-.434.277-.293.415-.709.415-1.248v-.117l-1.863.299a.937.937 0 00-.521.264.708.708 0 00-.2.515c0 .192.092.36.276.504.187.145.437.217.75.217zm8.28-3.299c0 .266-.075.498-.223.698-.145.199-.293.33-.446.392l-.228.111a1.292 1.292 0 01.392.182c.13.07.242.156.34.258.102.098.194.234.276.41.085.176.128.373.128.592 0 .48-.214.89-.644 1.23-.426.336-1.01.504-1.752.504a3.138 3.138 0 01-1.459-.357 4.266 4.266 0 01-.451-.293 2.371 2.371 0 01-.287-.258l-.082-.111.779-.78c.047.055.11.123.187.205.082.082.254.19.516.323.266.129.531.193.797.193.398 0 .697-.074.896-.223.204-.148.305-.334.305-.556 0-.223-.101-.408-.305-.557-.199-.148-.498-.223-.896-.223h-.662v-.96h.662c.312 0 .55-.061.715-.182a.574.574 0 00.246-.475.563.563 0 00-.246-.474c-.164-.125-.403-.188-.715-.188a1.8 1.8 0 00-.68.135c-.219.086-.38.176-.486.269l-.152.135-.786-.779c.055-.063.135-.141.24-.234.106-.094.34-.219.704-.375.363-.157.75-.235 1.16-.235.664 0 1.19.16 1.576.481.387.32.58.701.58 1.142zm4.622 4.377c-.215 0-.424-.025-.627-.076a2.467 2.467 0 01-.521-.187 4.44 4.44 0 01-.387-.235 3.277 3.277 0 01-.24-.193l-.082-.088v3.182h-1.201v-8.28h1.2v.662c.055-.054.132-.127.23-.216.1-.09.314-.207.638-.352s.654-.217.99-.217c.762 0 1.422.293 1.98.879.563.582.845 1.289.845 2.121 0 .832-.282 1.541-.844 2.127-.559.582-1.219.873-1.98.873zm1.096-4.353c-.352-.375-.756-.563-1.213-.563-.457 0-.861.188-1.213.563a1.915 1.915 0 00-.527 1.359c0 .527.176.979.527 1.354.352.375.756.562 1.213.562.457 0 .861-.187 1.213-.562a1.91 1.91 0 00.527-1.354c0-.531-.175-.984-.527-1.359zm8.379 1.775h-4.5c.062.406.262.758.598 1.055.34.297.742.445 1.207.445.335 0 .648-.076.937-.228.293-.153.5-.301.621-.446l.182-.222.78.779a3.438 3.438 0 01-.112.135 3.79 3.79 0 01-.82.644c-.18.102-.415.197-.704.287-.285.086-.58.129-.884.129-.817 0-1.522-.299-2.116-.896a2.981 2.981 0 01-.884-2.162c0-.809.287-1.5.86-2.075.579-.578 1.27-.867 2.075-.867.809 0 1.48.27 2.016.809.539.535.808 1.207.808 2.015l-.064.598zm-2.76-2.396c-.433 0-.799.128-1.096.386a1.87 1.87 0 00-.591.991h3.334a1.636 1.636 0 00-.545-.991c-.293-.258-.66-.386-1.102-.386zM33.592 294v-5.76h1.201v4.682h2.098v-4.682h1.2v4.682h2.104v-4.682h1.196V294h-7.8zm14.818-2.461h-4.5c.063.406.262.758.598 1.055.34.297.742.445 1.207.445.336 0 .648-.076.937-.228.293-.153.5-.301.621-.446l.182-.222.78.779a3.438 3.438 0 01-.112.135 3.79 3.79 0 01-.82.644 3.65 3.65 0 01-.703.287c-.285.086-.58.129-.885.129-.817 0-1.522-.299-2.115-.896a2.981 2.981 0 01-.885-2.162c0-.809.287-1.5.861-2.075.578-.578 1.27-.867 2.074-.867.809 0 1.48.27 2.016.809.54.535.809 1.207.809 2.015l-.065.598zm-2.76-2.396c-.433 0-.798.128-1.095.386-.293.254-.49.584-.592.991h3.334a1.636 1.636 0 00-.545-.991c-.293-.258-.66-.386-1.102-.386zm5.338 2.455V294h-1.2v-5.76h1.2v2.28h2.819v-2.28h1.2V294h-1.2v-2.402h-2.819zm9.903-3.358h1.078V294h-1.201v-3.779l-3 3.779H56.69v-5.76h1.2v3.78l3-3.78zm8.097 3.299h-4.5c.063.406.262.758.598 1.055.34.297.742.445 1.207.445.336 0 .648-.076.938-.228.292-.153.5-.301.62-.446l.182-.222.78.779a2.98 2.98 0 01-.112.135 3.79 3.79 0 01-.82.644 3.65 3.65 0 01-.703.287c-.285.086-.58.129-.885.129-.816 0-1.522-.299-2.115-.896a2.98 2.98 0 01-.885-2.162c0-.809.287-1.5.861-2.075.578-.578 1.27-.867 2.075-.867.808 0 1.48.27 2.015.809.54.535.809 1.207.809 2.015l-.065.598zm-2.76-2.396c-.433 0-.798.128-1.095.386-.293.254-.49.584-.592.991h3.334a1.636 1.636 0 00-.545-.991c-.293-.258-.66-.386-1.102-.386zm7.74 2.455V294h-1.2v-5.76h1.2v2.28h2.82v-2.28h1.2V294h-1.2v-2.402h-2.82zM84.294 294h-1.201v-.598l-.082.077a2.863 2.863 0 01-.58.392 2.648 2.648 0 01-.487.17 2.333 2.333 0 01-.591.076c-.586 0-1.073-.17-1.46-.51-.386-.339-.58-.728-.58-1.166 0-.472.149-.869.446-1.189.3-.32.71-.523 1.23-.609l2.104-.364a.998.998 0 00-.34-.767c-.223-.207-.51-.311-.861-.311-.305 0-.582.065-.832.194-.246.125-.416.251-.51.38l-.158.205-.78-.779.094-.117c.043-.051.135-.137.276-.258.144-.125.296-.236.457-.334a2.64 2.64 0 01.632-.258c.266-.078.54-.117.82-.117.704 0 1.28.209 1.73.627.448.414.673.926.673 1.535V294zm-2.76-.961c.489 0 .87-.144 1.143-.434.277-.293.416-.709.416-1.248v-.117l-1.864.299a.937.937 0 00-.521.264.708.708 0 00-.2.515c0 .192.093.36.276.504.188.145.438.217.75.217zm-80.22 14.188c-.594-.598-.891-1.299-.891-2.104 0-.809.297-1.512.89-2.109.598-.598 1.301-.897 2.11-.897.45 0 .867.098 1.254.293.386.192.664.383.832.574l.252.276-.78.779a1.73 1.73 0 00-.181-.228c-.078-.094-.252-.219-.522-.375a1.652 1.652 0 00-.855-.235c-.488 0-.912.186-1.272.557-.355.371-.533.826-.533 1.365 0 .535.178.988.533 1.359.36.372.784.557 1.272.557.305 0 .59-.076.855-.228.27-.153.463-.301.58-.446l.182-.222.78.779a7.732 7.732 0 01-.106.135c-.047.054-.149.15-.305.287-.156.133-.32.252-.492.357a3.428 3.428 0 01-.668.287 2.74 2.74 0 01-.826.129c-.809 0-1.512-.297-2.11-.89zm5.103-3.909v-1.078h5.156v1.078h-1.98V308H8.396v-4.682h-1.98zm9.293 4.799c-.215 0-.424-.025-.627-.076a2.47 2.47 0 01-.522-.187 4.44 4.44 0 01-.386-.235 3.292 3.292 0 01-.24-.193l-.082-.088v3.182H12.65v-8.28h1.202v.662a7.76 7.76 0 01.228-.216c.102-.09.315-.207.639-.352s.654-.217.99-.217c.762 0 1.422.293 1.98.879.563.582.844 1.289.844 2.121 0 .832-.281 1.541-.844 2.127-.558.582-1.218.873-1.98.873zm1.096-4.353c-.352-.375-.756-.563-1.213-.563-.457 0-.862.188-1.213.563a1.915 1.915 0 00-.527 1.359c0 .527.175.979.527 1.354.351.375.756.562 1.213.562.457 0 .861-.187 1.213-.562a1.91 1.91 0 00.527-1.354c0-.531-.176-.984-.527-1.359zm6.949 2.718a1.89 1.89 0 00.533-1.359c0-.539-.178-.994-.533-1.365-.356-.371-.777-.557-1.266-.557-.488 0-.912.186-1.271.557-.356.371-.533.826-.533 1.365 0 .535.177.988.533 1.359.36.372.783.557 1.271.557.489 0 .91-.185 1.266-.557zm-3.375.745c-.594-.598-.89-1.299-.89-2.104 0-.809.296-1.512.89-2.109.598-.598 1.3-.897 2.11-.897.808 0 1.509.299 2.103.897.598.597.896 1.3.896 2.109 0 .805-.299 1.506-.896 2.104-.594.593-1.295.89-2.104.89-.808 0-1.511-.297-2.11-.89zm10.629-4.987h1.078V308h-1.201v-3.779l-3 3.779h-1.078v-5.76h1.2v3.78l3-3.78zm2.162 1.078v-1.078h5.156v1.078h-1.98V308H35.15v-4.682h-1.98zm11.572 2.221h-4.5c.063.406.262.758.598 1.055.34.297.742.445 1.207.445.336 0 .648-.076.937-.228.293-.153.5-.301.621-.446l.182-.222.78.779a2.98 2.98 0 01-.112.135 3.783 3.783 0 01-.82.644 3.65 3.65 0 01-.703.287c-.285.086-.58.129-.885.129-.816 0-1.522-.299-2.115-.896a2.98 2.98 0 01-.885-2.162c0-.809.287-1.5.861-2.075.578-.578 1.27-.867 2.074-.867.809 0 1.48.27 2.016.809.54.535.809 1.207.809 2.015l-.065.598zm-2.76-2.396c-.433 0-.798.128-1.095.386-.293.254-.49.584-.592.991h3.334a1.636 1.636 0 00-.545-.991c-.293-.258-.66-.386-1.102-.386zm4.8-.903h4.44V308h-1.2v-4.682h-2.04v.604c0 1.098-.087 1.965-.263 2.601-.172.633-.395 1.057-.668 1.272-.27.215-.62.322-1.049.322a2.204 2.204 0 01-.615-.094L45.28 308v-1.143c.16.039.3.061.416.065.246 0 .44-.067.58-.199.145-.133.264-.426.358-.879.097-.457.146-1.098.146-1.922v-1.682zm7.324 4.74h1.318a.929.929 0 00.685-.275.93.93 0 00.276-.685.931.931 0 00-.276-.686.929.929 0 00-.685-.275h-1.319v1.921zm2.882-2.378c.399.371.598.845.598 1.423 0 .575-.2 1.047-.598 1.418-.394.371-.916.557-1.564.557h-2.52v-5.76h1.201v1.799h1.319c.648 0 1.17.188 1.564.563zm2.45 2.625c-.594-.598-.891-1.299-.891-2.104 0-.809.297-1.512.89-2.109.598-.598 1.301-.897 2.11-.897.45 0 .867.098 1.254.293.386.192.664.383.832.574l.252.276-.78.779a1.73 1.73 0 00-.181-.228c-.078-.094-.252-.219-.522-.375a1.652 1.652 0 00-.855-.235c-.488 0-.912.186-1.272.557-.355.371-.533.826-.533 1.365 0 .535.178.988.533 1.359.36.372.784.557 1.272.557.305 0 .59-.076.855-.228.27-.153.463-.301.58-.446l.182-.222.78.779a7.97 7.97 0 01-.106.135c-.047.054-.148.15-.305.287-.156.133-.32.252-.492.357a3.427 3.427 0 01-.668.287 2.739 2.739 0 01-.826.129c-.809 0-1.512-.297-2.11-.89zm5.103-3.909v-1.078h5.156v1.078h-1.98V308h-1.195v-4.682H64.54zm6.234-1.078h2.76c.55 0 .988.143 1.313.428.324.281.486.639.486 1.072 0 .246-.055.471-.164.674-.106.199-.215.338-.328.416l-.164.111c.023.008.056.022.1.041.042.02.12.071.234.153.113.078.21.166.293.263.086.094.162.223.228.387.07.164.106.342.106.533 0 .496-.178.901-.533 1.213-.352.313-.834.469-1.448.469h-2.883v-5.76zm2.883 3.182h-1.681v1.558h1.681c.239 0 .428-.07.569-.21.14-.141.21-.331.21-.569a.773.773 0 00-.216-.551.741.741 0 00-.563-.228zm.317-1.119a.595.595 0 00.164-.44c0-.187-.055-.334-.164-.439a.591.591 0 00-.44-.164h-1.558v1.201h1.558a.61.61 0 00.44-.158zm6.884 2.179a1.89 1.89 0 00.534-1.359c0-.539-.178-.994-.534-1.365-.355-.371-.777-.557-1.265-.557-.488 0-.912.186-1.272.557-.355.371-.533.826-.533 1.365 0 .535.178.988.533 1.359.36.372.784.557 1.272.557s.91-.185 1.265-.557zm-3.375.745c-.593-.598-.89-1.299-.89-2.104 0-.809.297-1.512.89-2.109.598-.598 1.301-.897 2.11-.897.808 0 1.51.299 2.103.897.598.597.897 1.3.897 2.109 0 .805-.3 1.506-.897 2.104-.594.593-1.295.89-2.103.89-.809 0-1.512-.297-2.11-.89zm13.149-2.649l2.22-2.338h1.442l-2.22 2.403 2.4 3.357h-1.325l-1.857-2.578-.662.721V308h-1.195v-1.857l-.663-.721L86.918 308h-1.324l2.402-3.357-2.22-2.403h1.44l2.222 2.338v-2.338h1.195v2.338zm9.902-2.338l-2.22 2.403L100.71 308h-1.318l-1.858-2.578-.902.961V308h-1.201v-5.76h1.2v2.578l2.462-2.578h1.441zm2.631-2.642h1.02V308h-1.319v-6.357h-1.5v-.903c.504-.054.887-.174 1.149-.357.265-.188.482-.449.65-.785z" fill="#000"/><path fill="#ECECEC" d="M284 266h140v12H284zm-142 0h140v12H142z"/><path fill="#484848" d="M142 266h89v12h-89zM0 266h140v12H0z"/><path d="M41.734 185.118c-.565.72-.847 1.716-.847 2.987 0 1.267.282 2.261.847 2.981.566.715 1.244 1.073 2.038 1.073.783 0 1.456-.36 2.016-1.08.56-.725.84-1.718.84-2.98 0-1.272-.282-2.265-.847-2.981-.565-.72-1.24-1.08-2.023-1.08-.784 0-1.459.36-2.024 1.08zm4.785-.67c.775.921 1.163 2.138 1.163 3.651s-.386 2.732-1.156 3.657c-.77.92-1.688 1.381-2.755 1.381-1.075 0-2-.461-2.775-1.381-.77-.925-1.155-2.144-1.155-3.657s.387-2.73 1.162-3.651c.775-.925 1.693-1.387 2.755-1.387 1.066 0 1.987.462 2.761 1.387zm4.8 2.359c.332.3.774.451 1.325.451.552 0 .992-.151 1.32-.451.333-.306.499-.691.499-1.156 0-.469-.166-.854-.5-1.155-.327-.305-.767-.458-1.319-.458-.55 0-.993.153-1.326.458-.328.301-.492.686-.492 1.155 0 .465.164.85.492 1.156zm-.705-2.96c.56-.524 1.238-.786 2.03-.786.794 0 1.47.262 2.03.786.561.519.842 1.121.842 1.804 0 .269-.046.527-.137.773a1.888 1.888 0 01-.314.581c-.119.141-.24.266-.363.376a1.977 1.977 0 01-.307.232l-.137.069c.045.018.105.043.177.075.078.032.212.118.404.26.191.141.36.296.506.464.15.165.285.397.403.698.123.296.185.613.185.95 0 .82-.315 1.527-.944 2.119-.629.592-1.41.889-2.344.889-.935 0-1.716-.297-2.345-.889-.63-.592-.944-1.299-.944-2.119 0-.337.057-.652.171-.943a2.22 2.22 0 01.424-.705c.164-.177.326-.33.486-.458a1.7 1.7 0 01.43-.259l.171-.082c-.036-.019-.084-.041-.143-.069a3.572 3.572 0 01-.301-.218 2.66 2.66 0 01-.39-.39 2.312 2.312 0 01-.43-1.354c0-.683.28-1.285.84-1.804zm3.61 4.867a2.227 2.227 0 00-1.58-.615 2.25 2.25 0 00-1.585.615c-.438.41-.657.882-.657 1.415 0 .551.205 1.028.616 1.429.414.401.957.601 1.627.601.674 0 1.216-.2 1.627-.601.41-.401.615-.878.615-1.429 0-.533-.221-1.005-.663-1.415zm3.507 4.231a.711.711 0 01-.185-.506.69.69 0 01.184-.499.68.68 0 01.513-.198c.214 0 .383.066.506.198a.676.676 0 01.191.499.697.697 0 01-.191.506c-.123.128-.292.192-.506.192a.692.692 0 01-.513-.192zm4.716-7.827c-.565.72-.847 1.716-.847 2.987 0 1.267.282 2.261.847 2.981.565.715 1.244 1.073 2.037 1.073.784 0 1.456-.36 2.017-1.08.56-.725.84-1.718.84-2.98 0-1.272-.282-2.265-.847-2.981-.565-.72-1.24-1.08-2.023-1.08-.784 0-1.459.36-2.024 1.08zm4.785-.67c.775.921 1.162 2.138 1.162 3.651s-.385 2.732-1.155 3.657c-.77.92-1.688 1.381-2.755 1.381-1.075 0-2-.461-2.775-1.381-.77-.925-1.155-2.144-1.155-3.657s.387-2.73 1.162-3.651c.775-.925 1.693-1.387 2.755-1.387 1.066 0 1.987.462 2.761 1.387zm1.853-1.251h6.166v.985L70.911 193h-1.054l4.341-8.818h-5.113v-.985zm6.35 9.748a.712.712 0 01-.184-.506.69.69 0 01.184-.499.68.68 0 01.513-.198c.214 0 .383.066.506.198a.676.676 0 01.192.499.697.697 0 01-.192.506c-.123.128-.292.192-.506.192a.692.692 0 01-.512-.192zm8.846.055h-6.303c0-.643.13-1.23.39-1.764.264-.533.59-.961.978-1.285a21.62 21.62 0 011.257-.984c.452-.328.871-.62 1.258-.875a3.5 3.5 0 00.971-.95 2.08 2.08 0 00.397-1.21c0-.57-.187-1.028-.561-1.374-.374-.347-.886-.52-1.538-.52-.328 0-.627.059-.896.178a1.72 1.72 0 00-.615.417c-.141.164-.26.328-.355.492a2.277 2.277 0 00-.192.424l-.04.171-.917-.417c.01-.064.03-.146.062-.246.036-.101.127-.278.273-.534.15-.255.326-.48.527-.676.2-.196.492-.376.875-.54a3.214 3.214 0 011.278-.246c.934 0 1.693.273 2.276.82.584.547.875 1.23.875 2.051 0 .474-.11.913-.328 1.319a3.41 3.41 0 01-.813 1.025c-.324.274-.69.561-1.1.862-.411.296-.8.572-1.17.827-.369.25-.713.556-1.032.916-.315.36-.538.74-.67 1.141h5.113V193zm3.569-7.882c-.566.72-.848 1.716-.848 2.987 0 1.267.282 2.261.848 2.981.565.715 1.244 1.073 2.037 1.073.784 0 1.456-.36 2.016-1.08.56-.725.841-1.718.841-2.98 0-1.272-.282-2.265-.847-2.981-.566-.72-1.24-1.08-2.024-1.08s-1.458.36-2.023 1.08zm4.785-.67c.774.921 1.162 2.138 1.162 3.651s-.385 2.732-1.155 3.657c-.77.92-1.689 1.381-2.755 1.381-1.076 0-2-.461-2.776-1.381-.77-.925-1.155-2.144-1.155-3.657s.387-2.73 1.162-3.651c.775-.925 1.693-1.387 2.755-1.387 1.066 0 1.987.462 2.762 1.387zm8.859 8.552h-6.303c0-.643.13-1.23.39-1.764.264-.533.59-.961.978-1.285a21.62 21.62 0 011.257-.984c.452-.328.87-.62 1.258-.875s.711-.572.971-.95a2.08 2.08 0 00.396-1.21c0-.57-.186-1.028-.56-1.374-.374-.347-.886-.52-1.538-.52-.328 0-.627.059-.896.178a1.72 1.72 0 00-.615.417c-.141.164-.26.328-.355.492a2.277 2.277 0 00-.192.424l-.04.171-.917-.417c.01-.064.03-.146.062-.246.036-.101.127-.278.273-.534.15-.255.326-.48.526-.676.201-.196.493-.376.876-.54a3.214 3.214 0 011.278-.246c.934 0 1.693.273 2.276.82.583.547.875 1.23.875 2.051 0 .474-.109.913-.328 1.319a3.41 3.41 0 01-.813 1.025c-.324.274-.69.561-1.101.862-.41.296-.8.572-1.169.827-.37.25-.713.556-1.032.916-.315.36-.538.74-.67 1.141h5.113V193zm3.568-7.882c-.565.72-.847 1.716-.847 2.987 0 1.267.282 2.261.847 2.981.566.715 1.245 1.073 2.038 1.073.783 0 1.456-.36 2.016-1.08.561-.725.841-1.718.841-2.98 0-1.272-.283-2.265-.848-2.981-.565-.72-1.239-1.08-2.023-1.08s-1.458.36-2.024 1.08zm4.786-.67c.774.921 1.162 2.138 1.162 3.651s-.385 2.732-1.156 3.657c-.77.92-1.688 1.381-2.754 1.381-1.076 0-2.001-.461-2.776-1.381-.77-.925-1.155-2.144-1.155-3.657s.387-2.73 1.162-3.651c.775-.925 1.693-1.387 2.755-1.387 1.066 0 1.987.462 2.762 1.387z" fill="#7D7D7D"/><path d="M330 176c0-65.722-53.278-119-119-119-65.722 0-119 53.278-119 119" stroke="#EBEBEB" stroke-width="38"/><path d="M301 176c0-50.258-40.294-91-90-91s-90 40.742-90 91" stroke="#EBEBEB" stroke-width="2"/><path d="M92 176c0-65.722 53.278-119 119-119 22.715 0 43.944 6.364 62 17.407" stroke="#333" stroke-width="38"/><path fill="#EBEBEB" d="M210 85h2v10h-2zm-38 9.765l1.848-.765 3.826 9.238-1.847.766zM248.827 94l1.848.765-3.827 9.24-1.848-.766zM291 176v-2h10v2zm-170 0v-2h10v2zm24-60.586l1.414-1.414 7.071 7.07-1.414 1.415zm-19 30.518l.518-1.932 9.659 2.588-.518 1.932zM294.659 144l.518 1.932-9.66 2.588-.517-1.932zm-17.232-28.356l1.414 1.414-7.427 7.427-1.414-1.414z"/><path d="M272.354 75.678l-46.38 74.126-4.974-3.355 51.354-70.771z" fill="#969696"/><path d="M156.312 6.815c-.61.62-.916 1.384-.916 2.29 0 .903.306 1.664.916 2.284.611.62 1.354.93 2.229.93.88 0 1.625-.31 2.235-.93.611-.62.916-1.381.916-2.284 0-.906-.305-1.67-.916-2.29a3.005 3.005 0 00-2.235-.936c-.875 0-1.618.312-2.229.936zm-1.551 5.9c-1.026-1.003-1.538-2.208-1.538-3.616 0-1.409.512-2.612 1.538-3.61 1.03-.998 2.29-1.497 3.78-1.497 1.495 0 2.755.5 3.78 1.497 1.03.998 1.545 2.201 1.545 3.61 0 1.408-.515 2.613-1.545 3.616-1.025.998-2.285 1.497-3.78 1.497-1.49 0-2.75-.5-3.78-1.497zm13.173-.602h2.098c.374 0 .688-.118.944-.355.255-.242.382-.52.382-.834 0-.32-.127-.597-.382-.834a1.323 1.323 0 00-.944-.362h-2.098v2.385zM170.101 14h-4.273V4.197h6.795v1.894h-4.689v1.75h2.167c.961 0 1.761.3 2.399.902.638.602.957 1.329.957 2.18 0 .848-.319 1.573-.957 2.175-.638.601-1.438.902-2.399.902zm17.568-9.803v7.916h1.189v3.917h-2.105V14h-11.409V4.197h2.105v7.916h3.008V4.197h2.099v7.916h3.007V4.197h2.106zM199.215 14h-2.099V7.772L192.29 14h-1.825V4.197h2.105v6.235l4.826-6.235h1.819V14zm6.255-12.49c.159.16.36.24.601.24a.817.817 0 00.841-.84h1.401c0 .633-.207 1.154-.622 1.565-.414.405-.954.608-1.62.608-.661 0-1.198-.203-1.613-.608-.415-.41-.622-.932-.622-1.566h1.394c0 .242.08.442.24.602zM210.48 14h-2.098V7.772L203.556 14h-1.826V4.197h2.106v6.235l4.826-6.235h1.818V14zm10.152-10.008c.515 0 1.005.069 1.47.205.464.132.845.294 1.141.486.301.191.565.382.793.574.233.191.399.353.499.485l.157.205-1.333 1.333a7.817 7.817 0 00-.116-.15 2.538 2.538 0 00-.321-.342 2.992 2.992 0 00-.54-.417 3.373 3.373 0 00-.773-.335 3.108 3.108 0 00-.977-.157c-.916 0-1.682.308-2.297.923-.615.615-.923 1.38-.923 2.297 0 .916.308 1.681.923 2.296.615.616 1.381.923 2.297.923.355 0 .695-.047 1.018-.143.329-.1.6-.217.814-.349.214-.136.403-.273.567-.41.164-.137.283-.255.356-.356l.109-.143 1.265 1.333a2.786 2.786 0 01-.171.219 5.712 5.712 0 01-.499.471 5.366 5.366 0 01-.827.595c-.292.169-.677.324-1.156.465a5.139 5.139 0 01-1.476.212c-1.495 0-2.757-.5-3.787-1.497-1.026-1.003-1.538-2.208-1.538-3.616 0-1.409.512-2.612 1.538-3.61 1.03-.998 2.292-1.497 3.787-1.497zm4.826.205h7.697v1.894h-2.796V14h-2.098V6.09h-2.803V4.198zm13.433 5.674l-1.19-3.22-1.196 3.22h2.386zm.697 1.819h-3.78l-.841 2.31h-2.242l3.855-9.803h2.235L242.671 14h-2.242l-.841-2.31zm2.659-7.493h7.697v1.894h-2.796V14h-2.098V6.09h-2.803V4.198zm10.712 0l2.311 4.621 1.961-4.62h2.243l-3.432 7.355c-.401.847-.873 1.49-1.415 1.927-.542.438-1.215.657-2.017.657a2.92 2.92 0 01-.56-.055 2.483 2.483 0 01-.417-.11l-.144-.04v-1.819c.233.091.513.137.841.137.702 0 1.24-.326 1.613-.977l.281-.493-3.5-6.583h2.235zm11.97-.205c.515 0 1.005.069 1.469.205.465.132.846.294 1.142.486.301.191.565.382.793.574.232.191.399.353.499.485l.157.205-1.333 1.333a7.817 7.817 0 00-.116-.15 2.609 2.609 0 00-.321-.342 2.992 2.992 0 00-.54-.417 3.373 3.373 0 00-.773-.335 3.112 3.112 0 00-.977-.157c-.916 0-1.682.308-2.297.923-.615.615-.923 1.38-.923 2.297 0 .916.308 1.681.923 2.296.615.616 1.381.923 2.297.923.355 0 .695-.047 1.018-.143.328-.1.6-.217.814-.349.214-.136.403-.273.567-.41.164-.137.283-.255.356-.356l.109-.143 1.265 1.333a2.786 2.786 0 01-.171.219c-.073.086-.24.244-.499.471a5.414 5.414 0 01-.827.595c-.292.169-.677.324-1.156.465a5.139 5.139 0 01-1.476.212c-1.495 0-2.757-.5-3.787-1.497-1.026-1.003-1.538-2.208-1.538-3.616 0-1.409.512-2.612 1.538-3.61 1.03-.998 2.292-1.497 3.787-1.497z" fill="#000"/><path d="M314.734 185.118c-.565.72-.847 1.716-.847 2.987 0 1.267.282 2.261.847 2.981.565.715 1.245 1.073 2.037 1.073.784 0 1.457-.36 2.017-1.08.561-.725.841-1.718.841-2.98 0-1.272-.283-2.265-.848-2.981-.565-.72-1.239-1.08-2.023-1.08s-1.459.36-2.024 1.08zm4.786-.67c.774.921 1.162 2.138 1.162 3.651s-.385 2.732-1.156 3.657c-.77.92-1.688 1.381-2.755 1.381-1.075 0-2-.461-2.775-1.381-.77-.925-1.155-2.144-1.155-3.657s.387-2.73 1.162-3.651c.775-.925 1.693-1.387 2.755-1.387 1.066 0 1.987.462 2.762 1.387zm4.798 2.359c.333.3.775.451 1.327.451.551 0 .991-.151 1.319-.451.333-.306.499-.691.499-1.156 0-.469-.166-.854-.499-1.155-.328-.305-.768-.458-1.319-.458-.552 0-.994.153-1.327.458-.328.301-.492.686-.492 1.155 0 .465.164.85.492 1.156zm-.704-2.96c.561-.524 1.238-.786 2.031-.786.793 0 1.469.262 2.03.786.56.519.841 1.121.841 1.804 0 .269-.046.527-.137.773a1.876 1.876 0 01-.315.581 3.62 3.62 0 01-.362.376 1.986 1.986 0 01-.307.232l-.137.069c.045.018.105.043.178.075.077.032.211.118.403.26.191.141.36.296.506.464.15.165.285.397.403.698.123.296.185.613.185.95 0 .82-.315 1.527-.944 2.119-.629.592-1.41.889-2.344.889-.935 0-1.716-.297-2.345-.889-.629-.592-.944-1.299-.944-2.119 0-.337.057-.652.171-.943a2.22 2.22 0 01.424-.705c.164-.177.326-.33.486-.458.164-.127.307-.214.43-.259l.171-.082c-.036-.019-.084-.041-.143-.069a3.544 3.544 0 01-.301-.218 2.662 2.662 0 01-.39-.39 2.327 2.327 0 01-.431-1.354c0-.683.281-1.285.841-1.804zm3.61 4.867a2.228 2.228 0 00-1.579-.615 2.25 2.25 0 00-1.586.615c-.438.41-.657.882-.657 1.415 0 .551.205 1.028.616 1.429.414.401.957.601 1.627.601.674 0 1.216-.2 1.626-.601.411-.401.616-.878.616-1.429 0-.533-.221-1.005-.663-1.415zm3.506 4.231a.711.711 0 01-.184-.506.69.69 0 01.184-.499.682.682 0 01.513-.198c.214 0 .383.066.506.198a.674.674 0 01.191.499.695.695 0 01-.191.506c-.123.128-.292.192-.506.192a.693.693 0 01-.513-.192zm4.717-7.827c-.565.72-.847 1.716-.847 2.987 0 1.267.282 2.261.847 2.981.565.715 1.244 1.073 2.037 1.073.784 0 1.456-.36 2.017-1.08.561-.725.841-1.718.841-2.98 0-1.272-.283-2.265-.848-2.981-.565-.72-1.239-1.08-2.023-1.08s-1.459.36-2.024 1.08zm4.785-.67c.775.921 1.163 2.138 1.163 3.651s-.386 2.732-1.156 3.657c-.77.92-1.688 1.381-2.755 1.381-1.075 0-2-.461-2.775-1.381-.77-.925-1.155-2.144-1.155-3.657s.387-2.73 1.162-3.651c.775-.925 1.693-1.387 2.755-1.387 1.066 0 1.987.462 2.761 1.387zm1.853-1.251h6.166v.985L343.91 193h-1.053l4.341-8.818h-5.113v-.985zm6.351 9.748a.708.708 0 01-.185-.506c0-.205.061-.371.185-.499a.678.678 0 01.512-.198c.214 0 .383.066.506.198a.675.675 0 01.192.499.696.696 0 01-.192.506c-.123.128-.292.192-.506.192-.214 0-.385-.064-.512-.192zm8.845.055h-6.302c0-.643.129-1.23.389-1.764.264-.533.59-.961.978-1.285.387-.328.806-.656 1.258-.984.451-.328.87-.62 1.257-.875a3.5 3.5 0 00.971-.95 2.08 2.08 0 00.397-1.21c0-.57-.187-1.028-.561-1.374-.374-.347-.886-.52-1.538-.52-.328 0-.627.059-.896.178a1.722 1.722 0 00-.615.417c-.141.164-.26.328-.355.492a2.34 2.34 0 00-.192.424l-.041.171-.916-.417c.009-.064.03-.146.062-.246.036-.101.127-.278.273-.534.151-.255.326-.48.527-.676.2-.196.492-.376.875-.54a3.208 3.208 0 011.278-.246c.934 0 1.693.273 2.276.82.584.547.875 1.23.875 2.051 0 .474-.109.913-.328 1.319a3.41 3.41 0 01-.813 1.025c-.324.274-.691.561-1.101.862-.41.296-.8.572-1.169.827-.369.25-.713.556-1.032.916-.315.36-.538.74-.67 1.141h5.113V193zm3.569-7.882c-.565.72-.848 1.716-.848 2.987 0 1.267.283 2.261.848 2.981.565.715 1.244 1.073 2.037 1.073.784 0 1.456-.36 2.016-1.08.561-.725.841-1.718.841-2.98 0-1.272-.282-2.265-.848-2.981-.565-.72-1.239-1.08-2.023-1.08s-1.458.36-2.023 1.08zm4.785-.67c.775.921 1.162 2.138 1.162 3.651s-.385 2.732-1.155 3.657c-.771.92-1.689 1.381-2.755 1.381-1.076 0-2.001-.461-2.776-1.381-.77-.925-1.155-2.144-1.155-3.657s.387-2.73 1.162-3.651c.775-.925 1.693-1.387 2.755-1.387 1.066 0 1.987.462 2.762 1.387zm8.859 8.552h-6.303c0-.643.13-1.23.39-1.764.264-.533.59-.961.978-1.285.387-.328.806-.656 1.257-.984.452-.328.871-.62 1.258-.875a3.5 3.5 0 00.971-.95 2.08 2.08 0 00.396-1.21c0-.57-.186-1.028-.56-1.374-.374-.347-.887-.52-1.538-.52-.328 0-.627.059-.896.178a1.722 1.722 0 00-.615.417c-.141.164-.26.328-.355.492a2.272 2.272 0 00-.192.424l-.041.171-.916-.417c.009-.064.03-.146.062-.246.036-.101.127-.278.273-.534.15-.255.326-.48.526-.676.201-.196.493-.376.875-.54a3.216 3.216 0 011.279-.246c.934 0 1.693.273 2.276.82.583.547.875 1.23.875 2.051 0 .474-.109.913-.328 1.319a3.41 3.41 0 01-.813 1.025c-.324.274-.691.561-1.101.862-.41.296-.8.572-1.169.827-.369.25-.713.556-1.032.916-.315.36-.538.74-.67 1.141h5.113V193zm3.568-7.882c-.565.72-.847 1.716-.847 2.987 0 1.267.282 2.261.847 2.981.566.715 1.245 1.073 2.038 1.073.783 0 1.456-.36 2.016-1.08.561-.725.841-1.718.841-2.98 0-1.272-.283-2.265-.848-2.981-.565-.72-1.239-1.08-2.023-1.08s-1.458.36-2.024 1.08zm4.786-.67c.774.921 1.162 2.138 1.162 3.651s-.385 2.732-1.156 3.657c-.77.92-1.688 1.381-2.754 1.381-1.076 0-2.001-.461-2.776-1.381-.77-.925-1.155-2.144-1.155-3.657s.387-2.73 1.162-3.651c.775-.925 1.693-1.387 2.755-1.387 1.066 0 1.987.462 2.762 1.387z" fill="#7D7D7D"/><path d="M194.582 162.647c1.633 0 3.081.644 4.342 1.93 1.261 1.278 1.891 2.759 1.891 4.444 0 1.785-.651 3.296-1.955 4.532-1.295 1.227-2.941 1.841-4.938 1.841-1.989 0-3.635-.614-4.939-1.841-1.295-1.236-1.942-2.747-1.942-4.532 0-.728.127-1.46.381-2.197.262-.736.525-1.286.787-1.65l.394-.571 5.065-7.808h4.037l-3.91 5.979c.228-.084.491-.127.787-.127zm1.574 8.506c.593-.575.889-1.286.889-2.132 0-.847-.296-1.558-.889-2.133-.584-.576-1.329-.864-2.234-.864-.897 0-1.642.288-2.234.864-.584.575-.876 1.286-.876 2.133 0 .846.292 1.557.876 2.132.592.567 1.337.851 2.234.851.905 0 1.65-.284 2.234-.851zm19.094-2.78h2.082v3.377h-2.082V175h-3.897v-3.25h-8.582v-3.897l7.934-11.058h4.545v11.578zm-3.897 0v-7.02l-4.939 7.02h4.939zm10.41-8.976c-.347.347-.521.783-.521 1.308 0 .516.174.948.521 1.295.347.347.778.521 1.295.521.524 0 .96-.174 1.307-.521.347-.347.521-.779.521-1.295 0-.525-.174-.961-.521-1.308-.347-.347-.783-.52-1.307-.52-.517 0-.948.173-1.295.52zM221.115 175l11.439-18.205h3.25L224.365 175h-3.25zm5.066-17.291c.871.863 1.307 1.862 1.307 2.996 0 1.126-.436 2.124-1.307 2.996-.864.863-1.905 1.295-3.123 1.295-1.211 0-2.252-.432-3.123-1.295-.864-.872-1.295-1.87-1.295-2.996 0-1.134.431-2.133 1.295-2.996.871-.863 1.912-1.295 3.123-1.295 1.218 0 2.259.432 3.123 1.295zm8.975 14.688c.347-.347.521-.778.521-1.294 0-.525-.174-.961-.521-1.308-.347-.347-.783-.521-1.307-.521-.517 0-.948.174-1.295.521-.347.347-.521.783-.521 1.308 0 .516.174.947.521 1.294.347.347.778.521 1.295.521.524 0 .96-.174 1.307-.521zm-4.43 1.702c-.864-.872-1.295-1.871-1.295-2.996 0-1.126.431-2.121 1.295-2.984.871-.872 1.912-1.307 3.123-1.307 1.218 0 2.259.435 3.123 1.307.871.863 1.307 1.858 1.307 2.984 0 1.125-.436 2.124-1.307 2.996-.864.863-1.905 1.295-3.123 1.295-1.211 0-2.252-.432-3.123-1.295zm-96.164-2.603c-.322.412-.484.981-.484 1.707 0 .724.162 1.292.484 1.703.323.409.711.614 1.165.614.447 0 .832-.206 1.152-.618.32-.414.48-.981.48-1.703 0-.726-.161-1.294-.484-1.703-.323-.411-.708-.617-1.156-.617-.448 0-.834.206-1.157.617zm2.735-.383c.443.526.664 1.222.664 2.086 0 .865-.22 1.561-.66 2.09-.44.526-.965.789-1.574.789-.615 0-1.144-.263-1.586-.789-.44-.529-.661-1.225-.661-2.09 0-.864.222-1.56.665-2.086.442-.528.967-.793 1.574-.793.609 0 1.135.265 1.578.793zm2.141 4.887l3.519-5.602h.559l-3.52 5.602h-.558zm1.433-5.316c.245.242.367.533.367.875 0 .341-.122.634-.367.879a1.193 1.193 0 01-.875.363c-.341 0-.633-.121-.875-.363a1.207 1.207 0 01-.363-.879c0-.342.121-.633.363-.875a1.19 1.19 0 01.875-.364c.341 0 .633.121.875.364zm-.363 1.421a.757.757 0 00.211-.546c0-.219-.071-.4-.211-.543a.68.68 0 00-.512-.215.69.69 0 00-.512.215.75.75 0 00-.207.543c0 .218.069.401.207.546a.69.69 0 00.512.215.68.68 0 00.512-.215zm1.574 3.61a1.193 1.193 0 01-.363-.875c0-.341.121-.633.363-.875s.534-.363.875-.363c.341 0 .633.121.875.363.245.242.367.534.367.875 0 .341-.122.633-.367.875a1.193 1.193 0 01-.875.363c-.341 0-.633-.121-.875-.363zm.363-1.418a.75.75 0 00-.207.543c0 .219.069.401.207.547a.684.684 0 00.512.215.684.684 0 00.512-.215.765.765 0 00.207-.547.75.75 0 00-.207-.543.677.677 0 00-.512-.219.677.677 0 00-.512.219zm64.035-75.899c.54 0 .987.178 1.344.532.357.351.535.787.535 1.308 0 .545-.175.987-.527 1.328-.352.342-.815.512-1.391.512a2.567 2.567 0 01-1.191-.293 3.29 3.29 0 01-.359-.246 1.208 1.208 0 01-.219-.211l-.07-.09.398-.398.055.074c.028.031.087.086.175.164.092.076.188.145.29.207a1.92 1.92 0 00.921.235c.401 0 .722-.118.961-.352.24-.234.36-.544.36-.93 0-.377-.12-.685-.36-.922-.237-.237-.544-.355-.922-.355-.25 0-.479.05-.687.152-.208.102-.353.2-.434.293l-.121.153h-.437l.199-3.16h3v.562h-2.48l-.122 1.758.133-.086a1.6 1.6 0 01.364-.145c.187-.06.382-.09.585-.09zm3.965-.902c-.323.412-.484.98-.484 1.707 0 .724.161 1.292.484 1.703.323.409.711.614 1.164.614.448 0 .832-.206 1.153-.618.32-.414.48-.981.48-1.703 0-.726-.161-1.294-.484-1.703-.323-.411-.709-.617-1.156-.617-.448 0-.834.206-1.157.617zm2.735-.383c.442.526.664 1.222.664 2.086 0 .865-.22 1.561-.66 2.09-.441.526-.965.789-1.575.789-.614 0-1.143-.263-1.586-.789-.44-.529-.66-1.225-.66-2.09 0-.864.222-1.56.664-2.086.443-.528.968-.793 1.575-.793.609 0 1.135.265 1.578.793zm2.14 4.887l3.52-5.602h.558L215.879 102h-.559zm1.434-5.316c.245.242.367.533.367.875a1.2 1.2 0 01-.367.879 1.193 1.193 0 01-.875.363 1.19 1.19 0 01-.875-.364 1.206 1.206 0 01-.363-.878c0-.342.121-.633.363-.875a1.19 1.19 0 01.875-.364c.341 0 .633.121.875.364zm-.363 1.422a.76.76 0 00.211-.547c0-.22-.071-.4-.211-.543a.683.683 0 00-.512-.215.691.691 0 00-.512.215.751.751 0 00-.207.543c0 .218.069.4.207.547a.691.691 0 00.512.214.683.683 0 00.512-.214zm1.574 3.609a1.193 1.193 0 01-.363-.875c0-.341.121-.633.363-.875s.534-.363.875-.363c.341 0 .633.12.875.363.245.242.367.534.367.875 0 .341-.122.633-.367.875a1.193 1.193 0 01-.875.363c-.341 0-.633-.121-.875-.363zm.363-1.418a.75.75 0 00-.207.543c0 .219.069.401.207.547a.684.684 0 00.512.215.684.684 0 00.512-.215.765.765 0 00.207-.547.75.75 0 00-.207-.543.677.677 0 00-.512-.219.677.677 0 00-.512.219zM149.922 130h-3.602a2.279 2.279 0 01.782-1.742c.221-.188.46-.375.718-.563.258-.187.498-.354.719-.5a2.02 2.02 0 00.555-.543c.151-.216.226-.446.226-.691 0-.326-.106-.587-.32-.785-.214-.198-.507-.297-.879-.297-.187 0-.358.034-.512.101a.985.985 0 00-.351.239 1.785 1.785 0 00-.203.281 1.338 1.338 0 00-.11.242l-.023.098-.524-.238a.912.912 0 01.036-.141c.02-.057.073-.159.156-.305.086-.146.186-.274.301-.386a1.63 1.63 0 01.5-.309c.218-.094.462-.141.73-.141.534 0 .968.157 1.301.469.333.313.5.703.5 1.172 0 .271-.063.522-.188.754a1.952 1.952 0 01-.464.586c-.185.156-.395.32-.629.492a45.52 45.52 0 01-.668.473 3.133 3.133 0 00-.59.523c-.18.206-.307.423-.383.652h2.922V130zm2.957-3.602c.539 0 .987.178 1.344.532.356.351.535.787.535 1.308 0 .545-.176.987-.528 1.328-.351.342-.815.512-1.39.512a2.562 2.562 0 01-1.192-.293 3.29 3.29 0 01-.359-.246 1.243 1.243 0 01-.219-.211l-.07-.09.398-.398.055.074a2.372 2.372 0 00.465.371c.102.06.234.115.398.164.167.047.342.071.524.071.401 0 .721-.118.961-.352.239-.234.359-.544.359-.93 0-.377-.12-.685-.359-.922-.237-.237-.544-.355-.922-.355-.25 0-.479.051-.688.152-.208.102-.352.199-.433.293l-.121.153h-.438l.199-3.161h3v.563h-2.48l-.121 1.758c.031-.021.075-.05.133-.086.057-.039.178-.087.363-.145.187-.06.383-.09.586-.09zm3.402 3.602l3.52-5.602h.558L156.84 130h-.559zm1.434-5.316c.245.242.367.533.367.875 0 .341-.122.634-.367.879a1.193 1.193 0 01-.875.363c-.341 0-.633-.121-.875-.363a1.207 1.207 0 01-.363-.879c0-.342.121-.633.363-.875a1.19 1.19 0 01.875-.364c.341 0 .633.121.875.364zm-.363 1.421a.756.756 0 00.21-.546c0-.219-.07-.4-.21-.543a.68.68 0 00-.512-.215.688.688 0 00-.512.215.75.75 0 00-.207.543c0 .218.069.401.207.546a.688.688 0 00.512.215.68.68 0 00.512-.215zm1.574 3.61a1.194 1.194 0 01-.364-.875c0-.341.122-.633.364-.875s.534-.363.875-.363c.341 0 .633.121.875.363.245.242.367.534.367.875 0 .341-.122.633-.367.875a1.193 1.193 0 01-.875.363c-.341 0-.633-.121-.875-.363zm.363-1.418a.75.75 0 00-.207.543c0 .219.069.401.207.547a.684.684 0 00.512.215.682.682 0 00.511-.215.761.761 0 00.208-.547c0-.219-.069-.4-.208-.543a.675.675 0 00-.511-.219.677.677 0 00-.512.219zm103.949-3.899h3.524v.563L264.281 130h-.601l2.48-5.039h-2.922v-.563zm6.203 2c.539 0 .987.178 1.344.532.357.351.535.787.535 1.308 0 .545-.175.987-.527 1.328-.352.342-.815.512-1.391.512a2.567 2.567 0 01-1.191-.293 3.29 3.29 0 01-.359-.246 1.175 1.175 0 01-.219-.211l-.071-.09.399-.398.055.074c.028.031.087.086.175.164.092.076.188.145.289.207a1.92 1.92 0 00.922.235c.401 0 .722-.118.961-.352.24-.234.36-.544.36-.93 0-.377-.12-.685-.36-.922-.237-.237-.544-.355-.922-.355-.25 0-.479.051-.687.152-.208.102-.353.199-.434.293l-.121.153h-.437l.199-3.161h3v.563h-2.481l-.121 1.758.133-.086c.057-.039.179-.087.363-.145.188-.06.383-.09.586-.09zm3.403 3.602l3.519-5.602h.559l-3.52 5.602h-.558zm1.433-5.316c.245.242.368.533.368.875a1.2 1.2 0 01-.368.879 1.193 1.193 0 01-.875.363c-.341 0-.632-.121-.875-.363a1.207 1.207 0 01-.363-.879c0-.342.121-.633.363-.875.243-.243.534-.364.875-.364.341 0 .633.121.875.364zm-.363 1.421a.753.753 0 00.211-.546c0-.219-.07-.4-.211-.543a.68.68 0 00-.512-.215c-.2 0-.371.071-.511.215a.75.75 0 00-.207.543c0 .218.069.401.207.546.14.144.311.215.511.215a.68.68 0 00.512-.215zm1.574 3.61a1.193 1.193 0 01-.363-.875c0-.341.121-.633.363-.875s.534-.363.875-.363c.341 0 .633.121.875.363.245.242.367.534.367.875 0 .341-.122.633-.367.875a1.193 1.193 0 01-.875.363c-.341 0-.633-.121-.875-.363zm.364-1.418a.75.75 0 00-.207.543c0 .219.069.401.207.547a.682.682 0 00.511.215.684.684 0 00.512-.215.765.765 0 00.207-.547.75.75 0 00-.207-.543.677.677 0 00-.512-.219.675.675 0 00-.511.219zM138.52 146.398h.441V152h-.602v-4.48h-1.039v-.36c.183-.005.347-.035.492-.09.146-.057.262-.121.348-.191a1.381 1.381 0 00.328-.399l.032-.082zm5.199 5.602h-3.602c0-.367.074-.703.223-1.008.151-.304.337-.549.558-.734.222-.188.461-.375.719-.563.258-.187.498-.354.719-.5a2.02 2.02 0 00.555-.543c.151-.216.226-.446.226-.691 0-.326-.107-.587-.32-.785-.214-.198-.507-.297-.879-.297-.188 0-.358.034-.512.101a.985.985 0 00-.351.239 1.785 1.785 0 00-.203.281 1.272 1.272 0 00-.11.242l-.023.098-.524-.238c.006-.037.017-.084.035-.141.021-.057.073-.159.157-.305.086-.146.186-.274.301-.386a1.63 1.63 0 01.5-.309c.218-.094.462-.141.73-.141.534 0 .967.157 1.301.469.333.313.5.703.5 1.172 0 .271-.063.522-.188.754a1.94 1.94 0 01-.465.586c-.184.156-.394.32-.628.492a51.6 51.6 0 01-.668.473 3.133 3.133 0 00-.59.523c-.18.206-.308.423-.383.652h2.922V152zm1.476 0l3.52-5.602h.558L145.754 152h-.559zm1.434-5.316c.245.242.367.533.367.875 0 .341-.122.634-.367.879a1.193 1.193 0 01-.875.363c-.341 0-.633-.121-.875-.363a1.207 1.207 0 01-.363-.879c0-.342.121-.633.363-.875a1.19 1.19 0 01.875-.364c.341 0 .633.121.875.364zm-.363 1.421a.757.757 0 00.211-.546c0-.219-.071-.4-.211-.543a.68.68 0 00-.512-.215.688.688 0 00-.512.215.75.75 0 00-.207.543c0 .218.069.401.207.546a.688.688 0 00.512.215.68.68 0 00.512-.215zm1.574 3.61a1.193 1.193 0 01-.363-.875c0-.341.121-.633.363-.875s.534-.363.875-.363c.341 0 .633.121.875.363.245.242.367.534.367.875 0 .341-.122.633-.367.875a1.193 1.193 0 01-.875.363c-.341 0-.633-.121-.875-.363zm.363-1.418a.75.75 0 00-.207.543c0 .219.069.401.207.547a.684.684 0 00.512.215.684.684 0 00.512-.215.765.765 0 00.207-.547.75.75 0 00-.207-.543.677.677 0 00-.512-.219.677.677 0 00-.512.219zm25.758-42.258a.716.716 0 01.109.035c.05.016.134.059.254.129.12.068.225.149.317.242.091.094.173.229.246.407.075.174.113.371.113.589 0 .443-.173.827-.52 1.153-.346.323-.799.484-1.359.484-.239 0-.467-.029-.683-.086a2.482 2.482 0 01-.536-.207 3.436 3.436 0 01-.367-.246 1.488 1.488 0 01-.23-.211l-.067-.09.403-.398.054.074a2.12 2.12 0 00.473.371 1.99 1.99 0 00.953.235c.406 0 .728-.103.965-.309a.977.977 0 00.355-.77c0-.299-.122-.554-.367-.765-.242-.211-.56-.317-.953-.317h-.562v-.558h.562c.336 0 .599-.09.789-.27.193-.182.289-.426.289-.73a.844.844 0 00-.293-.66c-.192-.175-.454-.262-.785-.262-.154 0-.305.022-.453.066a1.275 1.275 0 00-.363.16 2.102 2.102 0 00-.254.192 1.12 1.12 0 00-.156.16l-.055.063-.399-.442.067-.082a1.81 1.81 0 01.199-.18 2.079 2.079 0 01.809-.41c.195-.057.397-.086.605-.086.49 0 .892.145 1.207.434.315.286.473.635.473 1.047 0 .182-.03.347-.09.496a1.077 1.077 0 01-.211.355 2.103 2.103 0 01-.246.227c-.078.06-.147.103-.207.129l-.086.031zm1.59-2.641h3.523v.563l-2.48 5.039h-.602l2.481-5.039h-2.922v-.563zm4.722 5.602l3.52-5.602h.559l-3.52 5.602h-.559zm1.434-5.316c.245.242.367.533.367.875 0 .341-.122.634-.367.879a1.193 1.193 0 01-.875.363c-.341 0-.633-.121-.875-.363a1.207 1.207 0 01-.363-.879c0-.342.121-.633.363-.875a1.19 1.19 0 01.875-.364c.341 0 .633.121.875.364zm-.363 1.421a.757.757 0 00.211-.546c0-.219-.071-.4-.211-.543a.68.68 0 00-.512-.215.69.69 0 00-.512.215.75.75 0 00-.207.543c0 .218.069.401.207.546a.69.69 0 00.512.215.68.68 0 00.512-.215zm1.574 3.61a1.193 1.193 0 01-.363-.875c0-.341.121-.633.363-.875s.534-.363.875-.363c.341 0 .633.121.875.363.245.242.367.534.367.875 0 .341-.122.633-.367.875a1.193 1.193 0 01-.875.363c-.341 0-.633-.121-.875-.363zm.363-1.418a.75.75 0 00-.207.543c0 .219.069.401.207.547a.684.684 0 00.512.215.684.684 0 00.512-.215.765.765 0 00.207-.547.75.75 0 00-.207-.543.677.677 0 00-.512-.219.677.677 0 00-.512.219zm58.117-1.899c.54 0 .987.178 1.344.532.36.351.539.789.539 1.312 0 .521-.182.957-.547 1.309-.362.351-.82.527-1.375.527-.554 0-1.013-.176-1.375-.527a1.756 1.756 0 01-.543-1.313c0-.203.033-.403.098-.601a2.34 2.34 0 01.195-.453l.106-.145 1.68-2.641h.601l-1.32 2.082a1.83 1.83 0 01.597-.082zm.922 2.77c.24-.234.36-.543.36-.926 0-.385-.12-.695-.36-.93-.239-.234-.56-.351-.961-.351-.398 0-.718.117-.961.351-.239.235-.359.545-.359.93 0 .383.12.692.359.926.243.234.563.352.961.352.401 0 .722-.118.961-.352zm5.321.832h-3.602c0-.367.074-.703.223-1.008.151-.304.337-.549.558-.734.222-.188.461-.375.719-.563.258-.187.497-.354.719-.5.221-.146.406-.327.554-.543.152-.216.227-.446.227-.691 0-.326-.107-.587-.32-.785-.214-.198-.507-.297-.879-.297-.188 0-.358.034-.512.101a.985.985 0 00-.351.239 1.86 1.86 0 00-.204.281 1.324 1.324 0 00-.109.242l-.023.098-.524-.238a.891.891 0 01.035-.141c.021-.057.073-.159.157-.305.086-.146.186-.274.3-.386.115-.112.282-.215.5-.309.219-.094.463-.141.731-.141.534 0 .967.157 1.301.469.333.313.5.703.5 1.172 0 .271-.063.522-.188.754a1.94 1.94 0 01-.465.586c-.185.156-.394.32-.629.492-.234.169-.457.327-.668.473a3.128 3.128 0 00-.589.523c-.18.206-.308.423-.383.652h2.922V111zm1.476 0l3.52-5.602h.558L249.676 111h-.559zm1.434-5.316c.245.242.367.533.367.875 0 .341-.122.634-.367.879a1.193 1.193 0 01-.875.363c-.341 0-.633-.121-.875-.363a1.207 1.207 0 01-.363-.879c0-.342.121-.633.363-.875a1.19 1.19 0 01.875-.364c.341 0 .633.121.875.364zm-.363 1.421a.756.756 0 00.21-.546c0-.219-.07-.4-.21-.543a.682.682 0 00-.512-.215.688.688 0 00-.512.215.75.75 0 00-.207.543c0 .218.069.401.207.546a.688.688 0 00.512.215.682.682 0 00.512-.215zm1.574 3.61a1.194 1.194 0 01-.364-.875c0-.341.122-.633.364-.875s.534-.363.875-.363c.341 0 .633.121.875.363.245.242.367.534.367.875 0 .341-.122.633-.367.875a1.193 1.193 0 01-.875.363c-.341 0-.633-.121-.875-.363zm.363-1.418a.75.75 0 00-.207.543c0 .219.069.401.207.547a.684.684 0 00.512.215.682.682 0 00.511-.215.765.765 0 00.207-.547.75.75 0 00-.207-.543.675.675 0 00-.511-.219.677.677 0 00-.512.219zm19.477 39.164c.19.172.442.258.757.258s.567-.086.754-.258a.86.86 0 00.285-.66.849.849 0 00-.285-.66c-.187-.175-.439-.262-.754-.262s-.567.087-.757.262a.853.853 0 00-.282.66c0 .265.094.485.282.66zm-.403-1.691c.321-.3.707-.45 1.16-.45.453 0 .84.15 1.161.45.32.296.48.64.48 1.031 0 .153-.026.301-.078.441-.05.138-.11.249-.18.332a2.032 2.032 0 01-.207.215c-.068.06-.126.104-.176.133l-.078.039.102.043c.044.018.121.068.23.148.11.081.206.17.289.266a1.3 1.3 0 01.231.398c.07.17.105.351.105.543 0 .469-.179.873-.539 1.211-.359.339-.806.508-1.34.508-.533 0-.98-.169-1.339-.508-.36-.338-.54-.742-.54-1.211 0-.192.033-.372.098-.539a1.28 1.28 0 01.242-.402c.094-.102.187-.189.278-.262a.943.943 0 01.246-.148l.097-.047-.082-.039a1.937 1.937 0 01-.171-.125 1.47 1.47 0 01-.223-.223 1.325 1.325 0 01-.246-.773c0-.391.16-.735.48-1.031zm2.063 2.781a1.271 1.271 0 00-.903-.352c-.351 0-.653.117-.906.352-.25.234-.375.504-.375.808 0 .315.117.588.352.817.237.229.547.344.929.344.386 0 .696-.115.93-.344.234-.229.352-.502.352-.817 0-.304-.127-.574-.379-.808zm1.531-3.153h3.523v.563l-2.48 5.039h-.602l2.481-5.039h-2.922v-.563zm4.723 5.602l3.519-5.602h.559l-3.52 5.602h-.558zm1.433-5.316c.245.242.367.533.367.875 0 .341-.122.634-.367.879a1.193 1.193 0 01-.875.363c-.341 0-.633-.121-.875-.363a1.207 1.207 0 01-.363-.879c0-.342.121-.633.363-.875a1.19 1.19 0 01.875-.364c.341 0 .633.121.875.364zm-.363 1.421a.753.753 0 00.211-.546c0-.219-.07-.4-.211-.543a.68.68 0 00-.512-.215.69.69 0 00-.512.215.75.75 0 00-.207.543c0 .218.069.401.207.546a.69.69 0 00.512.215.68.68 0 00.512-.215zm1.574 3.61a1.193 1.193 0 01-.363-.875c0-.341.121-.633.363-.875s.534-.363.875-.363c.341 0 .633.121.875.363.245.242.367.534.367.875 0 .341-.122.633-.367.875a1.193 1.193 0 01-.875.363c-.341 0-.633-.121-.875-.363zm.363-1.418a.75.75 0 00-.207.543c0 .219.069.401.207.547a.684.684 0 00.512.215.684.684 0 00.512-.215.765.765 0 00.207-.547.75.75 0 00-.207-.543.677.677 0 00-.512-.219.677.677 0 00-.512.219zm-12.003 20.101h.441V176h-.602v-4.48h-1.039v-.36c.183-.005.347-.035.492-.09.146-.057.262-.121.348-.191a1.381 1.381 0 00.328-.399l.032-.082zm2.839 1.098c-.323.412-.484.981-.484 1.707 0 .724.161 1.292.484 1.703.323.409.711.614 1.164.614.448 0 .832-.206 1.153-.618.32-.414.48-.981.48-1.703 0-.726-.161-1.294-.484-1.703-.323-.411-.708-.617-1.156-.617-.448 0-.834.206-1.157.617zm2.735-.383c.442.526.664 1.222.664 2.086 0 .865-.22 1.561-.66 2.09-.44.526-.965.789-1.575.789-.614 0-1.143-.263-1.585-.789-.441-.529-.661-1.225-.661-2.09 0-.864.222-1.56.664-2.086.443-.528.968-.793 1.575-.793.609 0 1.135.265 1.578.793zm2.703.383c-.323.412-.485.981-.485 1.707 0 .724.162 1.292.485 1.703.323.409.711.614 1.164.614.448 0 .832-.206 1.152-.618.321-.414.481-.981.481-1.703 0-.726-.162-1.294-.485-1.703-.323-.411-.708-.617-1.156-.617-.448 0-.833.206-1.156.617zm2.734-.383c.443.526.664 1.222.664 2.086 0 .865-.22 1.561-.66 2.09-.44.526-.965.789-1.574.789-.615 0-1.143-.263-1.586-.789-.44-.529-.66-1.225-.66-2.09 0-.864.221-1.56.664-2.086.443-.528.967-.793 1.574-.793.609 0 1.136.265 1.578.793zm2.141 4.887l3.519-5.602h.559L284.23 176h-.558zm1.433-5.316c.245.242.368.533.368.875a1.2 1.2 0 01-.368.879 1.191 1.191 0 01-.875.363c-.341 0-.632-.121-.875-.363a1.207 1.207 0 01-.363-.879c0-.342.121-.633.363-.875.243-.243.534-.364.875-.364.342 0 .633.121.875.364zm-.363 1.421a.753.753 0 00.211-.546c0-.219-.07-.4-.211-.543a.679.679 0 00-.512-.215c-.2 0-.371.071-.511.215a.75.75 0 00-.207.543c0 .218.069.401.207.546.14.144.311.215.511.215a.679.679 0 00.512-.215zm1.574 3.61a1.193 1.193 0 01-.363-.875c0-.341.121-.633.363-.875.243-.242.534-.363.875-.363.342 0 .633.121.875.363.245.242.368.534.368.875 0 .341-.123.633-.368.875a1.191 1.191 0 01-.875.363c-.341 0-.632-.121-.875-.363zm.364-1.418a.75.75 0 00-.207.543c0 .219.069.401.207.547a.682.682 0 00.511.215.683.683 0 00.512-.215.765.765 0 00.207-.547.75.75 0 00-.207-.543.675.675 0 00-.512-.219.675.675 0 00-.511.219z" fill="#000"/></svg>