<svg width="346" height="196" fill="none" xmlns="http://www.w3.org/2000/svg"><path fill="#fff" d="M0 0h346v196H0z"/><path d="M2.734 185.118c-.565.72-.847 1.716-.847 2.987 0 1.267.282 2.261.847 2.981.565.715 1.245 1.073 2.037 1.073.784 0 1.457-.36 2.017-1.08.56-.725.84-1.718.84-2.98 0-1.272-.282-2.265-.847-2.981-.565-.72-1.24-1.08-2.023-1.08-.784 0-1.459.36-2.024 1.08zm4.786-.67c.774.921 1.162 2.138 1.162 3.651s-.385 2.732-1.156 3.657c-.77.92-1.688 1.381-2.755 1.381-1.075 0-2-.461-2.775-1.381-.77-.925-1.155-2.144-1.155-3.657s.387-2.73 1.162-3.651c.775-.925 1.693-1.387 2.755-1.387 1.066 0 1.987.462 2.762 1.387zm4.798 2.359c.333.3.775.451 1.327.451.551 0 .99-.151 1.319-.451.332-.306.499-.691.499-1.156 0-.469-.166-.854-.5-1.155-.327-.305-.767-.458-1.318-.458-.552 0-.994.153-1.327.458-.328.301-.492.686-.492 1.155 0 .465.164.85.492 1.156zm-.704-2.96c.56-.524 1.238-.786 2.03-.786.793 0 1.47.262 2.03.786.561.519.842 1.121.842 1.804 0 .269-.046.527-.137.773a1.888 1.888 0 01-.315.581 3.62 3.62 0 01-.362.376 1.977 1.977 0 01-.307.232l-.137.069c.045.018.105.043.178.075.077.032.212.118.403.26.191.141.36.296.506.464.15.165.285.397.403.698.123.296.185.613.185.95 0 .82-.315 1.527-.944 2.119-.629.592-1.41.889-2.345.889-.934 0-1.715-.297-2.344-.889-.63-.592-.944-1.299-.944-2.119 0-.337.057-.652.171-.943a2.22 2.22 0 01.424-.705c.164-.177.326-.33.486-.458a1.7 1.7 0 01.43-.259l.171-.082c-.036-.019-.084-.041-.143-.069a3.572 3.572 0 01-.301-.218 2.66 2.66 0 01-.39-.39 2.312 2.312 0 01-.43-1.354c0-.683.28-1.285.84-1.804zm3.61 4.867a2.227 2.227 0 00-1.58-.615 2.25 2.25 0 00-1.585.615c-.438.41-.657.882-.657 1.415 0 .551.205 1.028.616 1.429.414.401.957.601 1.627.601.674 0 1.216-.2 1.627-.601.41-.401.615-.878.615-1.429 0-.533-.221-1.005-.663-1.415zm3.506 4.231a.711.711 0 01-.184-.506.69.69 0 01.184-.499.68.68 0 01.513-.198c.214 0 .383.066.506.198a.676.676 0 01.191.499.697.697 0 01-.191.506c-.123.128-.292.192-.506.192a.692.692 0 01-.512-.192zm4.717-7.827c-.565.72-.847 1.716-.847 2.987 0 1.267.282 2.261.847 2.981.565.715 1.244 1.073 2.037 1.073.784 0 1.456-.36 2.017-1.08.56-.725.84-1.718.84-2.98 0-1.272-.282-2.265-.847-2.981-.565-.72-1.24-1.08-2.023-1.08-.784 0-1.459.36-2.024 1.08zm4.785-.67c.775.921 1.163 2.138 1.163 3.651s-.386 2.732-1.156 3.657c-.77.92-1.688 1.381-2.755 1.381-1.075 0-2-.461-2.775-1.381-.77-.925-1.155-2.144-1.155-3.657s.387-2.73 1.162-3.651c.775-.925 1.693-1.387 2.755-1.387 1.066 0 1.987.462 2.761 1.387zm1.853-1.251h6.166v.985L31.911 193h-1.054l4.341-8.818h-5.113v-.985zm6.35 9.748a.712.712 0 01-.184-.506.69.69 0 01.184-.499.68.68 0 01.513-.198c.214 0 .383.066.506.198a.676.676 0 01.191.499.697.697 0 01-.19.506c-.124.128-.293.192-.507.192a.692.692 0 01-.513-.192zm8.846.055h-6.303c0-.643.13-1.23.39-1.764.264-.533.59-.961.978-1.285a21.62 21.62 0 011.258-.984c.45-.328.87-.62 1.257-.875a3.5 3.5 0 00.971-.95 2.08 2.08 0 00.396-1.21c0-.57-.186-1.028-.56-1.374-.374-.347-.886-.52-1.538-.52-.328 0-.627.059-.896.178a1.72 1.72 0 00-.615.417c-.141.164-.26.328-.355.492a2.277 2.277 0 00-.192.424l-.04.171-.917-.417c.01-.064.03-.146.062-.246.036-.101.127-.278.273-.534.15-.255.326-.48.527-.676.2-.196.492-.376.875-.54a3.214 3.214 0 011.278-.246c.934 0 1.693.273 2.276.82.584.547.875 1.23.875 2.051 0 .474-.11.913-.328 1.319a3.41 3.41 0 01-.813 1.025c-.324.274-.69.561-1.1.862-.411.296-.8.572-1.17.827-.369.25-.713.556-1.032.916-.315.36-.538.74-.67 1.141h5.113V193zm3.569-7.882c-.566.72-.848 1.716-.848 2.987 0 1.267.282 2.261.848 2.981.565.715 1.244 1.073 2.037 1.073.784 0 1.456-.36 2.016-1.08.56-.725.841-1.718.841-2.98 0-1.272-.282-2.265-.847-2.981-.566-.72-1.24-1.08-2.024-1.08s-1.458.36-2.023 1.08zm4.785-.67c.775.921 1.162 2.138 1.162 3.651s-.385 2.732-1.155 3.657c-.77.92-1.689 1.381-2.755 1.381-1.076 0-2-.461-2.776-1.381-.77-.925-1.155-2.144-1.155-3.657s.387-2.73 1.162-3.651c.775-.925 1.693-1.387 2.755-1.387 1.067 0 1.987.462 2.762 1.387zm8.86 8.552H56.19c0-.643.13-1.23.39-1.764.264-.533.59-.961.978-1.285a21.62 21.62 0 011.257-.984c.452-.328.87-.62 1.258-.875s.711-.572.97-.95c.265-.379.397-.782.397-1.21 0-.57-.186-1.028-.56-1.374-.374-.347-.886-.52-1.538-.52-.328 0-.627.059-.896.178a1.72 1.72 0 00-.615.417c-.141.164-.26.328-.355.492a2.277 2.277 0 00-.192.424l-.04.171-.917-.417c.01-.064.03-.146.062-.246.036-.101.127-.278.273-.534.15-.255.326-.48.527-.676.2-.196.492-.376.875-.54a3.214 3.214 0 011.278-.246c.934 0 1.693.273 2.276.82.584.547.875 1.23.875 2.051 0 .474-.11.913-.328 1.319a3.41 3.41 0 01-.813 1.025c-.324.274-.69.561-1.101.862-.41.296-.8.572-1.169.827-.37.25-.713.556-1.032.916-.315.36-.538.74-.67 1.141h5.113V193zm3.568-7.882c-.566.72-.848 1.716-.848 2.987 0 1.267.282 2.261.847 2.981.566.715 1.245 1.073 2.038 1.073.784 0 1.456-.36 2.016-1.08.56-.725.841-1.718.841-2.98 0-1.272-.282-2.265-.848-2.981-.565-.72-1.24-1.08-2.023-1.08-.784 0-1.458.36-2.023 1.08zm4.785-.67c.774.921 1.162 2.138 1.162 3.651s-.385 2.732-1.156 3.657c-.77.92-1.688 1.381-2.754 1.381-1.076 0-2.001-.461-2.776-1.381-.77-.925-1.155-2.144-1.155-3.657s.387-2.73 1.162-3.651c.775-.925 1.693-1.387 2.755-1.387 1.066 0 1.987.462 2.762 1.387z" fill="#7D7D7D"/><path fill="#fff" d="M34 38h276v138H34z"/><path d="M291 176c0-65.722-53.278-119-119-119-65.722 0-119 53.278-119 119" stroke="#EBEBEB" stroke-width="38"/><path d="M262 176c0-50.258-40.294-91-90-91s-90 40.742-90 91" stroke="#EBEBEB" stroke-width="2"/><path d="M53 176c0-65.722 53.278-119 119-119 22.715 0 43.944 6.364 62 17.407" stroke="#333" stroke-width="38"/><path fill="#EBEBEB" d="M171 85h2v10h-2zm-38 9.765l1.848-.765 3.826 9.238-1.847.766zM209.827 94l1.848.765-3.827 9.24-1.848-.766zM252 176v-2h10v2zm-170 0v-2h10v2zm24-60.586l1.414-1.414 7.071 7.07-1.414 1.415zm-19 30.518l.518-1.932 9.659 2.588-.518 1.932zM255.659 144l.518 1.932-9.66 2.588-.517-1.932zm-17.232-28.356l1.414 1.414-7.427 7.427-1.414-1.414z"/><path d="M233.355 75.678l-46.381 74.126-4.974-3.355 51.355-70.771z" fill="#969696"/><path d="M117.312 6.815c-.61.62-.916 1.384-.916 2.29 0 .903.306 1.664.916 2.284.611.62 1.354.93 2.229.93.88 0 1.625-.31 2.235-.93.611-.62.916-1.381.916-2.284 0-.906-.305-1.67-.916-2.29a3.005 3.005 0 00-2.235-.936c-.875 0-1.618.312-2.229.936zm-1.551 5.9c-1.026-1.003-1.538-2.208-1.538-3.616 0-1.409.512-2.612 1.538-3.61 1.03-.998 2.29-1.497 3.78-1.497 1.495 0 2.755.5 3.78 1.497 1.03.998 1.545 2.201 1.545 3.61 0 1.408-.515 2.613-1.545 3.616-1.025.998-2.285 1.497-3.78 1.497-1.49 0-2.75-.5-3.78-1.497zm13.173-.602h2.098c.374 0 .688-.118.944-.355.255-.242.382-.52.382-.834 0-.32-.127-.597-.382-.834a1.323 1.323 0 00-.944-.362h-2.098v2.385zM131.101 14h-4.273V4.197h6.795v1.894h-4.689v1.75h2.167c.961 0 1.761.3 2.399.902.638.602.957 1.329.957 2.18 0 .848-.319 1.573-.957 2.175-.638.601-1.438.902-2.399.902zm17.568-9.803v7.916h1.189v3.917h-2.105V14h-11.409V4.197h2.105v7.916h3.008V4.197h2.099v7.916h3.007V4.197h2.106zM160.215 14h-2.099V7.772L153.29 14h-1.825V4.197h2.105v6.235l4.826-6.235h1.819V14zm6.255-12.49c.159.16.36.24.601.24a.817.817 0 00.841-.84h1.401c0 .633-.207 1.154-.622 1.565-.414.405-.954.608-1.62.608-.661 0-1.198-.203-1.613-.608-.415-.41-.622-.932-.622-1.566h1.394c0 .242.08.442.24.602zM171.48 14h-2.098V7.772L164.556 14h-1.826V4.197h2.106v6.235l4.826-6.235h1.818V14zm10.152-10.008c.515 0 1.005.069 1.47.205.464.132.845.294 1.141.486.301.191.565.382.793.574.233.191.399.353.499.485l.157.205-1.333 1.333a7.817 7.817 0 00-.116-.15 2.538 2.538 0 00-.321-.342 2.992 2.992 0 00-.54-.417 3.373 3.373 0 00-.773-.335 3.108 3.108 0 00-.977-.157c-.916 0-1.682.308-2.297.923-.615.615-.923 1.38-.923 2.297 0 .916.308 1.681.923 2.296.615.616 1.381.923 2.297.923.355 0 .695-.047 1.018-.143.329-.1.6-.217.814-.349.214-.136.403-.273.567-.41.164-.137.283-.255.356-.356l.109-.143 1.265 1.333a2.786 2.786 0 01-.171.219 5.712 5.712 0 01-.499.471 5.366 5.366 0 01-.827.595c-.292.169-.677.324-1.156.465a5.139 5.139 0 01-1.476.212c-1.495 0-2.757-.5-3.787-1.497-1.026-1.003-1.538-2.208-1.538-3.616 0-1.409.512-2.612 1.538-3.61 1.03-.998 2.292-1.497 3.787-1.497zm4.826.205h7.697v1.894h-2.796V14h-2.098V6.09h-2.803V4.198zm13.433 5.674l-1.19-3.22-1.196 3.22h2.386zm.697 1.819h-3.78l-.841 2.31h-2.242l3.855-9.803h2.235L203.671 14h-2.242l-.841-2.31zm2.659-7.493h7.697v1.894h-2.796V14h-2.098V6.09h-2.803V4.198zm10.712 0l2.311 4.621 1.961-4.62h2.243l-3.432 7.355c-.401.847-.873 1.49-1.415 1.927-.542.438-1.215.657-2.017.657a2.92 2.92 0 01-.56-.055 2.483 2.483 0 01-.417-.11l-.144-.04v-1.819c.233.091.513.137.841.137.702 0 1.24-.326 1.613-.977l.281-.493-3.5-6.583h2.235zm11.97-.205c.515 0 1.005.069 1.469.205.465.132.846.294 1.142.486.301.191.565.382.793.574.232.191.399.353.499.485l.157.205-1.333 1.333a7.817 7.817 0 00-.116-.15 2.609 2.609 0 00-.321-.342 2.992 2.992 0 00-.54-.417 3.373 3.373 0 00-.773-.335 3.112 3.112 0 00-.977-.157c-.916 0-1.682.308-2.297.923-.615.615-.923 1.38-.923 2.297 0 .916.308 1.681.923 2.296.615.616 1.381.923 2.297.923.355 0 .695-.047 1.018-.143.328-.1.6-.217.814-.349.214-.136.403-.273.567-.41.164-.137.283-.255.356-.356l.109-.143 1.265 1.333a2.786 2.786 0 01-.171.219c-.073.086-.24.244-.499.471a5.414 5.414 0 01-.827.595c-.292.169-.677.324-1.156.465a5.139 5.139 0 01-1.476.212c-1.495 0-2.757-.5-3.787-1.497-1.026-1.003-1.538-2.208-1.538-3.616 0-1.409.512-2.612 1.538-3.61 1.03-.998 2.292-1.497 3.787-1.497z" fill="#000"/><path d="M275.734 185.118c-.565.72-.847 1.716-.847 2.987 0 1.267.282 2.261.847 2.981.565.715 1.245 1.073 2.037 1.073.784 0 1.457-.36 2.017-1.08.561-.725.841-1.718.841-2.98 0-1.272-.283-2.265-.848-2.981-.565-.72-1.239-1.08-2.023-1.08s-1.459.36-2.024 1.08zm4.786-.67c.774.921 1.162 2.138 1.162 3.651s-.385 2.732-1.156 3.657c-.77.92-1.688 1.381-2.755 1.381-1.075 0-2-.461-2.775-1.381-.77-.925-1.155-2.144-1.155-3.657s.387-2.73 1.162-3.651c.775-.925 1.693-1.387 2.755-1.387 1.066 0 1.987.462 2.762 1.387zm4.798 2.359c.333.3.775.451 1.327.451.551 0 .991-.151 1.319-.451.333-.306.499-.691.499-1.156 0-.469-.166-.854-.499-1.155-.328-.305-.768-.458-1.319-.458-.552 0-.994.153-1.327.458-.328.301-.492.686-.492 1.155 0 .465.164.85.492 1.156zm-.704-2.96c.561-.524 1.238-.786 2.031-.786.793 0 1.469.262 2.03.786.56.519.841 1.121.841 1.804 0 .269-.046.527-.137.773a1.876 1.876 0 01-.315.581 3.62 3.62 0 01-.362.376 1.986 1.986 0 01-.307.232l-.137.069c.045.018.105.043.178.075.077.032.211.118.403.26.191.141.36.296.506.464.15.165.285.397.403.698.123.296.185.613.185.95 0 .82-.315 1.527-.944 2.119-.629.592-1.41.889-2.344.889-.935 0-1.716-.297-2.345-.889-.629-.592-.944-1.299-.944-2.119 0-.337.057-.652.171-.943a2.22 2.22 0 01.424-.705c.164-.177.326-.33.486-.458.164-.127.307-.214.43-.259l.171-.082c-.036-.019-.084-.041-.143-.069a3.544 3.544 0 01-.301-.218 2.662 2.662 0 01-.39-.39 2.327 2.327 0 01-.431-1.354c0-.683.281-1.285.841-1.804zm3.61 4.867a2.228 2.228 0 00-1.579-.615 2.25 2.25 0 00-1.586.615c-.438.41-.657.882-.657 1.415 0 .551.205 1.028.616 1.429.414.401.957.601 1.627.601.674 0 1.216-.2 1.626-.601.411-.401.616-.878.616-1.429 0-.533-.221-1.005-.663-1.415zm3.506 4.231a.711.711 0 01-.184-.506.69.69 0 01.184-.499.682.682 0 01.513-.198c.214 0 .383.066.506.198a.674.674 0 01.191.499.695.695 0 01-.191.506c-.123.128-.292.192-.506.192a.693.693 0 01-.513-.192zm4.717-7.827c-.565.72-.847 1.716-.847 2.987 0 1.267.282 2.261.847 2.981.565.715 1.244 1.073 2.037 1.073.784 0 1.456-.36 2.017-1.08.561-.725.841-1.718.841-2.98 0-1.272-.283-2.265-.848-2.981-.565-.72-1.239-1.08-2.023-1.08s-1.459.36-2.024 1.08zm4.785-.67c.775.921 1.163 2.138 1.163 3.651s-.386 2.732-1.156 3.657c-.77.92-1.688 1.381-2.755 1.381-1.075 0-2-.461-2.775-1.381-.77-.925-1.155-2.144-1.155-3.657s.387-2.73 1.162-3.651c.775-.925 1.693-1.387 2.755-1.387 1.066 0 1.987.462 2.761 1.387zm1.853-1.251h6.166v.985L304.91 193h-1.053l4.341-8.818h-5.113v-.985zm6.351 9.748a.708.708 0 01-.185-.506c0-.205.061-.371.185-.499a.678.678 0 01.512-.198c.214 0 .383.066.506.198a.675.675 0 01.192.499.696.696 0 01-.192.506c-.123.128-.292.192-.506.192-.214 0-.385-.064-.512-.192zm8.845.055h-6.302c0-.643.129-1.23.389-1.764.264-.533.59-.961.978-1.285.387-.328.806-.656 1.258-.984.451-.328.87-.62 1.257-.875a3.5 3.5 0 00.971-.95 2.08 2.08 0 00.397-1.21c0-.57-.187-1.028-.561-1.374-.374-.347-.886-.52-1.538-.52-.328 0-.627.059-.896.178a1.722 1.722 0 00-.615.417c-.141.164-.26.328-.355.492a2.34 2.34 0 00-.192.424l-.041.171-.916-.417c.009-.064.03-.146.062-.246.036-.101.127-.278.273-.534.151-.255.326-.48.527-.676.2-.196.492-.376.875-.54a3.208 3.208 0 011.278-.246c.934 0 1.693.273 2.276.82.584.547.875 1.23.875 2.051 0 .474-.109.913-.328 1.319a3.41 3.41 0 01-.813 1.025c-.324.274-.691.561-1.101.862-.41.296-.8.572-1.169.827-.369.25-.713.556-1.032.916-.315.36-.538.74-.67 1.141h5.113V193zm3.569-7.882c-.565.72-.848 1.716-.848 2.987 0 1.267.283 2.261.848 2.981.565.715 1.244 1.073 2.037 1.073.784 0 1.456-.36 2.016-1.08.561-.725.841-1.718.841-2.98 0-1.272-.282-2.265-.848-2.981-.565-.72-1.239-1.08-2.023-1.08s-1.458.36-2.023 1.08zm4.785-.67c.775.921 1.162 2.138 1.162 3.651s-.385 2.732-1.155 3.657c-.771.92-1.689 1.381-2.755 1.381-1.076 0-2.001-.461-2.776-1.381-.77-.925-1.155-2.144-1.155-3.657s.387-2.73 1.162-3.651c.775-.925 1.693-1.387 2.755-1.387 1.066 0 1.987.462 2.762 1.387zm8.859 8.552h-6.303c0-.643.13-1.23.39-1.764.264-.533.59-.961.978-1.285.387-.328.806-.656 1.257-.984.452-.328.871-.62 1.258-.875a3.5 3.5 0 00.971-.95 2.08 2.08 0 00.396-1.21c0-.57-.186-1.028-.56-1.374-.374-.347-.887-.52-1.538-.52-.328 0-.627.059-.896.178a1.722 1.722 0 00-.615.417c-.141.164-.26.328-.355.492a2.272 2.272 0 00-.192.424l-.041.171-.916-.417c.009-.064.03-.146.062-.246.036-.101.127-.278.273-.534.15-.255.326-.48.526-.676.201-.196.493-.376.875-.54a3.216 3.216 0 011.279-.246c.934 0 1.693.273 2.276.82.583.547.875 1.23.875 2.051 0 .474-.109.913-.328 1.319a3.41 3.41 0 01-.813 1.025c-.324.274-.691.561-1.101.862-.41.296-.8.572-1.169.827-.369.25-.713.556-1.032.916-.315.36-.538.74-.67 1.141h5.113V193zm3.568-7.882c-.565.72-.847 1.716-.847 2.987 0 1.267.282 2.261.847 2.981.566.715 1.245 1.073 2.038 1.073.783 0 1.456-.36 2.016-1.08.561-.725.841-1.718.841-2.98 0-1.272-.283-2.265-.848-2.981-.565-.72-1.239-1.08-2.023-1.08s-1.458.36-2.024 1.08zm4.786-.67c.774.921 1.162 2.138 1.162 3.651s-.385 2.732-1.156 3.657c-.77.92-1.688 1.381-2.754 1.381-1.076 0-2.001-.461-2.776-1.381-.77-.925-1.155-2.144-1.155-3.657s.387-2.73 1.162-3.651c.775-.925 1.693-1.387 2.755-1.387 1.066 0 1.987.462 2.762 1.387z" fill="#7D7D7D"/><path d="M155.582 162.647c1.633 0 3.081.644 4.342 1.93 1.261 1.278 1.891 2.759 1.891 4.444 0 1.785-.651 3.296-1.955 4.532-1.295 1.227-2.941 1.841-4.938 1.841-1.989 0-3.635-.614-4.939-1.841-1.295-1.236-1.942-2.747-1.942-4.532 0-.728.127-1.46.381-2.197.262-.736.525-1.286.787-1.65l.394-.571 5.065-7.808h4.037l-3.91 5.979c.228-.084.491-.127.787-.127zm1.574 8.506c.593-.575.889-1.286.889-2.132 0-.847-.296-1.558-.889-2.133-.584-.576-1.329-.864-2.234-.864-.897 0-1.642.288-2.234.864-.584.575-.876 1.286-.876 2.133 0 .846.292 1.557.876 2.132.592.567 1.337.851 2.234.851.905 0 1.65-.284 2.234-.851zm19.094-2.78h2.082v3.377h-2.082V175h-3.897v-3.25h-8.582v-3.897l7.934-11.058h4.545v11.578zm-3.897 0v-7.02l-4.939 7.02h4.939zm10.41-8.976c-.347.347-.521.783-.521 1.308 0 .516.174.948.521 1.295.347.347.778.521 1.295.521.524 0 .96-.174 1.307-.521.347-.347.521-.779.521-1.295 0-.525-.174-.961-.521-1.308-.347-.347-.783-.52-1.307-.52-.517 0-.948.173-1.295.52zM182.115 175l11.439-18.205h3.25L185.365 175h-3.25zm5.066-17.291c.871.863 1.307 1.862 1.307 2.996 0 1.126-.436 2.124-1.307 2.996-.864.863-1.905 1.295-3.123 1.295-1.211 0-2.252-.432-3.123-1.295-.864-.872-1.295-1.87-1.295-2.996 0-1.134.431-2.133 1.295-2.996.871-.863 1.912-1.295 3.123-1.295 1.218 0 2.259.432 3.123 1.295zm8.975 14.688c.347-.347.521-.778.521-1.294 0-.525-.174-.961-.521-1.308-.347-.347-.783-.521-1.307-.521-.517 0-.948.174-1.295.521-.347.347-.521.783-.521 1.308 0 .516.174.947.521 1.294.347.347.778.521 1.295.521.524 0 .96-.174 1.307-.521zm-4.43 1.702c-.864-.872-1.295-1.871-1.295-2.996 0-1.126.431-2.121 1.295-2.984.871-.872 1.912-1.307 3.123-1.307 1.218 0 2.259.435 3.123 1.307.871.863 1.307 1.858 1.307 2.984 0 1.125-.436 2.124-1.307 2.996-.864.863-1.905 1.295-3.123 1.295-1.211 0-2.252-.432-3.123-1.295zm-96.163-2.603c-.323.412-.485.981-.485 1.707 0 .724.162 1.292.484 1.703.323.409.711.614 1.165.614.447 0 .832-.206 1.152-.618.32-.414.48-.981.48-1.703 0-.726-.161-1.294-.484-1.703-.323-.411-.708-.617-1.156-.617-.448 0-.834.206-1.156.617zm2.734-.383c.443.526.664 1.222.664 2.086 0 .865-.22 1.561-.66 2.09-.44.526-.965.789-1.574.789-.615 0-1.144-.263-1.586-.789-.44-.529-.66-1.225-.66-2.09 0-.864.22-1.56.663-2.086.443-.528.968-.793 1.575-.793.61 0 1.135.265 1.578.793zm2.141 4.887l3.519-5.602h.559l-3.52 5.602h-.558zm1.433-5.316c.245.242.367.533.367.875 0 .341-.122.634-.367.879a1.193 1.193 0 01-.875.363c-.341 0-.633-.121-.875-.363a1.207 1.207 0 01-.363-.879c0-.342.12-.633.363-.875a1.19 1.19 0 01.875-.364c.341 0 .633.121.875.364zm-.363 1.421a.757.757 0 00.211-.546c0-.219-.071-.4-.211-.543a.68.68 0 00-.512-.215.69.69 0 00-.512.215.75.75 0 00-.207.543c0 .218.069.401.207.546a.69.69 0 00.512.215.68.68 0 00.512-.215zm1.574 3.61a1.193 1.193 0 01-.363-.875c0-.341.121-.633.363-.875s.534-.363.875-.363c.341 0 .633.121.875.363.245.242.367.534.367.875 0 .341-.122.633-.367.875a1.193 1.193 0 01-.875.363c-.341 0-.633-.121-.875-.363zm.363-1.418a.75.75 0 00-.207.543c0 .219.069.401.207.547a.684.684 0 00.512.215.684.684 0 00.512-.215.765.765 0 00.207-.547.75.75 0 00-.207-.543.677.677 0 00-.512-.219.677.677 0 00-.512.219zm64.035-75.899c.54 0 .987.178 1.344.532.357.351.535.787.535 1.308 0 .545-.175.987-.527 1.328-.352.342-.815.512-1.391.512a2.567 2.567 0 01-1.191-.293 3.29 3.29 0 01-.359-.246 1.208 1.208 0 01-.219-.211l-.07-.09.398-.398.055.074c.028.031.087.086.175.164.092.076.188.145.29.207a1.92 1.92 0 00.921.235c.401 0 .722-.118.961-.352.24-.234.36-.544.36-.93 0-.377-.12-.685-.36-.922-.237-.237-.544-.355-.922-.355-.25 0-.479.05-.687.152-.208.102-.353.2-.434.293l-.121.153h-.437l.199-3.16h3v.562h-2.48l-.122 1.758.133-.086a1.6 1.6 0 01.364-.145c.187-.06.382-.09.585-.09zm3.965-.902c-.323.412-.484.98-.484 1.707 0 .724.161 1.292.484 1.703.323.409.711.614 1.164.614.448 0 .832-.206 1.153-.618.32-.414.48-.981.48-1.703 0-.726-.161-1.294-.484-1.703-.323-.411-.709-.617-1.156-.617-.448 0-.834.206-1.157.617zm2.735-.383c.442.526.664 1.222.664 2.086 0 .865-.22 1.561-.66 2.09-.441.526-.965.789-1.575.789-.614 0-1.143-.263-1.586-.789-.44-.529-.66-1.225-.66-2.09 0-.864.222-1.56.664-2.086.443-.528.968-.793 1.575-.793.609 0 1.135.265 1.578.793zm2.14 4.887l3.52-5.602h.558L176.879 102h-.559zm1.434-5.316c.245.242.367.533.367.875a1.2 1.2 0 01-.367.879 1.193 1.193 0 01-.875.363 1.19 1.19 0 01-.875-.364 1.206 1.206 0 01-.363-.878c0-.342.121-.633.363-.875a1.19 1.19 0 01.875-.364c.341 0 .633.121.875.364zm-.363 1.422a.76.76 0 00.211-.547c0-.22-.071-.4-.211-.543a.683.683 0 00-.512-.215.691.691 0 00-.512.215.751.751 0 00-.207.543c0 .218.069.4.207.547a.691.691 0 00.512.214.683.683 0 00.512-.214zm1.574 3.609a1.193 1.193 0 01-.363-.875c0-.341.121-.633.363-.875s.534-.363.875-.363c.341 0 .633.12.875.363.245.242.367.534.367.875 0 .341-.122.633-.367.875a1.193 1.193 0 01-.875.363c-.341 0-.633-.121-.875-.363zm.363-1.418a.75.75 0 00-.207.543c0 .219.069.401.207.547a.684.684 0 00.512.215.684.684 0 00.512-.215.765.765 0 00.207-.547.75.75 0 00-.207-.543.677.677 0 00-.512-.219.677.677 0 00-.512.219zM110.922 130h-3.602a2.279 2.279 0 01.782-1.742c.221-.188.46-.375.718-.563.258-.187.498-.354.719-.5a2.02 2.02 0 00.555-.543c.151-.216.226-.446.226-.691 0-.326-.106-.587-.32-.785-.214-.198-.507-.297-.879-.297-.187 0-.358.034-.512.101a.985.985 0 00-.351.239 1.785 1.785 0 00-.203.281 1.338 1.338 0 00-.11.242l-.023.098-.524-.238a.912.912 0 01.036-.141c.02-.057.073-.159.156-.305.086-.146.186-.274.301-.386a1.63 1.63 0 01.5-.309c.218-.094.462-.141.73-.141.534 0 .968.157 1.301.469.333.313.5.703.5 1.172 0 .271-.063.522-.188.754a1.952 1.952 0 01-.464.586c-.185.156-.395.32-.629.492a45.52 45.52 0 01-.668.473 3.133 3.133 0 00-.59.523c-.18.206-.307.423-.383.652h2.922V130zm2.957-3.602c.539 0 .987.178 1.344.532.356.351.535.787.535 1.308 0 .545-.176.987-.528 1.328-.351.342-.815.512-1.39.512a2.562 2.562 0 01-1.192-.293 3.29 3.29 0 01-.359-.246 1.243 1.243 0 01-.219-.211l-.07-.09.398-.398.055.074a2.372 2.372 0 00.465.371c.102.06.234.115.398.164.167.047.342.071.524.071.401 0 .721-.118.961-.352.239-.234.359-.544.359-.93 0-.377-.12-.685-.359-.922-.237-.237-.544-.355-.922-.355-.25 0-.479.051-.688.152-.208.102-.352.199-.433.293l-.121.153h-.438l.199-3.161h3v.563h-2.48l-.121 1.758c.031-.021.075-.05.133-.086.057-.039.178-.087.363-.145.187-.06.383-.09.586-.09zm3.402 3.602l3.52-5.602h.558L117.84 130h-.559zm1.434-5.316c.245.242.367.533.367.875 0 .341-.122.634-.367.879a1.193 1.193 0 01-.875.363c-.341 0-.633-.121-.875-.363a1.207 1.207 0 01-.363-.879c0-.342.121-.633.363-.875a1.19 1.19 0 01.875-.364c.341 0 .633.121.875.364zm-.363 1.421a.756.756 0 00.21-.546c0-.219-.07-.4-.21-.543a.68.68 0 00-.512-.215.688.688 0 00-.512.215.75.75 0 00-.207.543c0 .218.069.401.207.546a.688.688 0 00.512.215.68.68 0 00.512-.215zm1.574 3.61a1.194 1.194 0 01-.364-.875c0-.341.122-.633.364-.875s.534-.363.875-.363c.341 0 .633.121.875.363.245.242.367.534.367.875 0 .341-.122.633-.367.875a1.193 1.193 0 01-.875.363c-.341 0-.633-.121-.875-.363zm.363-1.418a.75.75 0 00-.207.543c0 .219.069.401.207.547a.684.684 0 00.512.215.682.682 0 00.511-.215.761.761 0 00.208-.547c0-.219-.069-.4-.208-.543a.675.675 0 00-.511-.219.677.677 0 00-.512.219zm103.949-3.899h3.524v.563L225.281 130h-.601l2.48-5.039h-2.922v-.563zm6.203 2c.539 0 .987.178 1.344.532.357.351.535.787.535 1.308 0 .545-.175.987-.527 1.328-.352.342-.815.512-1.391.512a2.567 2.567 0 01-1.191-.293 3.29 3.29 0 01-.359-.246 1.175 1.175 0 01-.219-.211l-.071-.09.399-.398.055.074c.028.031.087.086.175.164.092.076.188.145.289.207a1.92 1.92 0 00.922.235c.401 0 .722-.118.961-.352.24-.234.36-.544.36-.93 0-.377-.12-.685-.36-.922-.237-.237-.544-.355-.922-.355-.25 0-.479.051-.687.152-.208.102-.353.199-.434.293l-.121.153h-.437l.199-3.161h3v.563h-2.481l-.121 1.758.133-.086c.057-.039.179-.087.363-.145.188-.06.383-.09.586-.09zm3.403 3.602l3.519-5.602h.559l-3.52 5.602h-.558zm1.433-5.316c.245.242.368.533.368.875a1.2 1.2 0 01-.368.879 1.193 1.193 0 01-.875.363c-.341 0-.632-.121-.875-.363a1.207 1.207 0 01-.363-.879c0-.342.121-.633.363-.875.243-.243.534-.364.875-.364.341 0 .633.121.875.364zm-.363 1.421a.753.753 0 00.211-.546c0-.219-.07-.4-.211-.543a.68.68 0 00-.512-.215c-.2 0-.371.071-.511.215a.75.75 0 00-.207.543c0 .218.069.401.207.546.14.144.311.215.511.215a.68.68 0 00.512-.215zm1.574 3.61a1.193 1.193 0 01-.363-.875c0-.341.121-.633.363-.875s.534-.363.875-.363c.341 0 .633.121.875.363.245.242.367.534.367.875 0 .341-.122.633-.367.875a1.193 1.193 0 01-.875.363c-.341 0-.633-.121-.875-.363zm.364-1.418a.75.75 0 00-.207.543c0 .219.069.401.207.547a.682.682 0 00.511.215.684.684 0 00.512-.215.765.765 0 00.207-.547.75.75 0 00-.207-.543.677.677 0 00-.512-.219.675.675 0 00-.511.219zM99.52 146.398h.44V152h-.6v-4.48h-1.04v-.36c.183-.005.347-.035.493-.09a1.31 1.31 0 00.347-.191 1.371 1.371 0 00.328-.399l.031-.082zm5.199 5.602h-3.602c0-.367.074-.703.223-1.008.151-.304.337-.549.558-.734.222-.188.461-.375.719-.563.258-.187.498-.354.719-.5a2.02 2.02 0 00.555-.543c.151-.216.226-.446.226-.691 0-.326-.107-.587-.32-.785-.214-.198-.507-.297-.879-.297-.188 0-.358.034-.512.101a.985.985 0 00-.351.239 1.785 1.785 0 00-.203.281 1.272 1.272 0 00-.11.242l-.023.098-.524-.238c.006-.037.017-.084.035-.141.021-.057.073-.159.157-.305.086-.146.186-.274.301-.386a1.63 1.63 0 01.5-.309c.218-.094.462-.141.73-.141.534 0 .967.157 1.301.469.333.313.5.703.5 1.172 0 .271-.063.522-.188.754a1.94 1.94 0 01-.465.586c-.184.156-.394.32-.628.492a51.6 51.6 0 01-.668.473 3.133 3.133 0 00-.59.523c-.18.206-.308.423-.383.652h2.922V152zm1.476 0l3.52-5.602h.558L106.754 152h-.559zm1.434-5.316c.245.242.367.533.367.875 0 .341-.122.634-.367.879a1.193 1.193 0 01-.875.363c-.341 0-.633-.121-.875-.363a1.207 1.207 0 01-.363-.879c0-.342.121-.633.363-.875a1.19 1.19 0 01.875-.364c.341 0 .633.121.875.364zm-.363 1.421a.757.757 0 00.211-.546c0-.219-.071-.4-.211-.543a.68.68 0 00-.512-.215.688.688 0 00-.512.215.75.75 0 00-.207.543c0 .218.069.401.207.546a.688.688 0 00.512.215.68.68 0 00.512-.215zm1.574 3.61a1.193 1.193 0 01-.363-.875c0-.341.121-.633.363-.875s.534-.363.875-.363c.341 0 .633.121.875.363.245.242.367.534.367.875 0 .341-.122.633-.367.875a1.193 1.193 0 01-.875.363c-.341 0-.633-.121-.875-.363zm.363-1.418a.75.75 0 00-.207.543c0 .219.069.401.207.547a.684.684 0 00.512.215.684.684 0 00.512-.215.765.765 0 00.207-.547.75.75 0 00-.207-.543.677.677 0 00-.512-.219.677.677 0 00-.512.219zm25.758-42.258a.716.716 0 01.109.035c.05.016.134.059.254.129.12.068.225.149.317.242.091.094.173.229.246.407.075.174.113.371.113.589 0 .443-.173.827-.52 1.153-.346.323-.799.484-1.359.484-.239 0-.467-.029-.683-.086a2.482 2.482 0 01-.536-.207 3.436 3.436 0 01-.367-.246 1.488 1.488 0 01-.23-.211l-.067-.09.403-.398.054.074a2.12 2.12 0 00.473.371 1.99 1.99 0 00.953.235c.406 0 .728-.103.965-.309a.977.977 0 00.355-.77c0-.299-.122-.554-.367-.765-.242-.211-.56-.317-.953-.317h-.562v-.558h.562c.336 0 .599-.09.789-.27.193-.182.289-.426.289-.73a.844.844 0 00-.293-.66c-.192-.175-.454-.262-.785-.262-.154 0-.305.022-.453.066a1.275 1.275 0 00-.363.16 2.102 2.102 0 00-.254.192 1.12 1.12 0 00-.156.16l-.055.063-.399-.442.067-.082a1.81 1.81 0 01.199-.18 2.079 2.079 0 01.809-.41c.195-.057.397-.086.605-.086.49 0 .892.145 1.207.434.315.286.473.635.473 1.047 0 .182-.03.347-.09.496a1.077 1.077 0 01-.211.355 2.103 2.103 0 01-.246.227c-.078.06-.147.103-.207.129l-.086.031zm1.59-2.641h3.523v.563l-2.48 5.039h-.602l2.481-5.039h-2.922v-.563zm4.722 5.602l3.52-5.602h.559l-3.52 5.602h-.559zm1.434-5.316c.245.242.367.533.367.875 0 .341-.122.634-.367.879a1.193 1.193 0 01-.875.363c-.341 0-.633-.121-.875-.363a1.207 1.207 0 01-.363-.879c0-.342.121-.633.363-.875a1.19 1.19 0 01.875-.364c.341 0 .633.121.875.364zm-.363 1.421a.757.757 0 00.211-.546c0-.219-.071-.4-.211-.543a.68.68 0 00-.512-.215.69.69 0 00-.512.215.75.75 0 00-.207.543c0 .218.069.401.207.546a.69.69 0 00.512.215.68.68 0 00.512-.215zm1.574 3.61a1.193 1.193 0 01-.363-.875c0-.341.121-.633.363-.875s.534-.363.875-.363c.341 0 .633.121.875.363.245.242.367.534.367.875 0 .341-.122.633-.367.875a1.193 1.193 0 01-.875.363c-.341 0-.633-.121-.875-.363zm.363-1.418a.75.75 0 00-.207.543c0 .219.069.401.207.547a.684.684 0 00.512.215.684.684 0 00.512-.215.765.765 0 00.207-.547.75.75 0 00-.207-.543.677.677 0 00-.512-.219.677.677 0 00-.512.219zm58.117-1.899c.54 0 .987.178 1.344.532.36.351.539.789.539 1.312 0 .521-.182.957-.547 1.309-.362.351-.82.527-1.375.527-.554 0-1.013-.176-1.375-.527a1.756 1.756 0 01-.543-1.313c0-.203.033-.403.098-.601a2.34 2.34 0 01.195-.453l.106-.145 1.68-2.641h.601l-1.32 2.082a1.83 1.83 0 01.597-.082zm.922 2.77c.24-.234.36-.543.36-.926 0-.385-.12-.695-.36-.93-.239-.234-.56-.351-.961-.351-.398 0-.718.117-.961.351-.239.235-.359.545-.359.93 0 .383.12.692.359.926.243.234.563.352.961.352.401 0 .722-.118.961-.352zm5.321.832h-3.602c0-.367.074-.703.223-1.008.151-.304.337-.549.558-.734.222-.188.461-.375.719-.563.258-.187.497-.354.719-.5.221-.146.406-.327.554-.543.152-.216.227-.446.227-.691 0-.326-.107-.587-.32-.785-.214-.198-.507-.297-.879-.297-.188 0-.358.034-.512.101a.985.985 0 00-.351.239 1.86 1.86 0 00-.204.281 1.324 1.324 0 00-.109.242l-.023.098-.524-.238a.891.891 0 01.035-.141c.021-.057.073-.159.157-.305.086-.146.186-.274.3-.386.115-.112.282-.215.5-.309.219-.094.463-.141.731-.141.534 0 .967.157 1.301.469.333.313.5.703.5 1.172 0 .271-.063.522-.188.754a1.94 1.94 0 01-.465.586c-.185.156-.394.32-.629.492-.234.169-.457.327-.668.473a3.128 3.128 0 00-.589.523c-.18.206-.308.423-.383.652h2.922V111zm1.476 0l3.52-5.602h.558L210.676 111h-.559zm1.434-5.316c.245.242.367.533.367.875 0 .341-.122.634-.367.879a1.193 1.193 0 01-.875.363c-.341 0-.633-.121-.875-.363a1.207 1.207 0 01-.363-.879c0-.342.121-.633.363-.875a1.19 1.19 0 01.875-.364c.341 0 .633.121.875.364zm-.363 1.421a.756.756 0 00.21-.546c0-.219-.07-.4-.21-.543a.682.682 0 00-.512-.215.688.688 0 00-.512.215.75.75 0 00-.207.543c0 .218.069.401.207.546a.688.688 0 00.512.215.682.682 0 00.512-.215zm1.574 3.61a1.194 1.194 0 01-.364-.875c0-.341.122-.633.364-.875s.534-.363.875-.363c.341 0 .633.121.875.363.245.242.367.534.367.875 0 .341-.122.633-.367.875a1.193 1.193 0 01-.875.363c-.341 0-.633-.121-.875-.363zm.363-1.418a.75.75 0 00-.207.543c0 .219.069.401.207.547a.684.684 0 00.512.215.682.682 0 00.511-.215.765.765 0 00.207-.547.75.75 0 00-.207-.543.675.675 0 00-.511-.219.677.677 0 00-.512.219zm19.477 39.164c.19.172.442.258.757.258s.567-.086.754-.258a.86.86 0 00.285-.66.849.849 0 00-.285-.66c-.187-.175-.439-.262-.754-.262s-.567.087-.757.262a.853.853 0 00-.282.66c0 .265.094.485.282.66zm-.403-1.691c.321-.3.707-.45 1.16-.45.453 0 .84.15 1.161.45.32.296.48.64.48 1.031 0 .153-.026.301-.078.441-.05.138-.11.249-.18.332a2.032 2.032 0 01-.207.215c-.068.06-.126.104-.176.133l-.078.039.102.043c.044.018.121.068.23.148.11.081.206.17.289.266a1.3 1.3 0 01.231.398c.07.17.105.351.105.543 0 .469-.179.873-.539 1.211-.359.339-.806.508-1.34.508-.533 0-.98-.169-1.339-.508-.36-.338-.54-.742-.54-1.211 0-.192.033-.372.098-.539a1.28 1.28 0 01.242-.402c.094-.102.187-.189.278-.262a.943.943 0 01.246-.148l.097-.047-.082-.039a1.937 1.937 0 01-.171-.125 1.47 1.47 0 01-.223-.223 1.325 1.325 0 01-.246-.773c0-.391.16-.735.48-1.031zm2.063 2.781a1.271 1.271 0 00-.903-.352c-.351 0-.653.117-.906.352-.25.234-.375.504-.375.808 0 .315.117.588.352.817.237.229.547.344.929.344.386 0 .696-.115.93-.344.234-.229.352-.502.352-.817 0-.304-.127-.574-.379-.808zm1.531-3.153h3.523v.563l-2.48 5.039h-.602l2.481-5.039h-2.922v-.563zm4.723 5.602l3.519-5.602h.559l-3.52 5.602h-.558zm1.433-5.316c.245.242.367.533.367.875 0 .341-.122.634-.367.879a1.193 1.193 0 01-.875.363c-.341 0-.633-.121-.875-.363a1.207 1.207 0 01-.363-.879c0-.342.121-.633.363-.875a1.19 1.19 0 01.875-.364c.341 0 .633.121.875.364zm-.363 1.421a.753.753 0 00.211-.546c0-.219-.07-.4-.211-.543a.68.68 0 00-.512-.215.69.69 0 00-.512.215.75.75 0 00-.207.543c0 .218.069.401.207.546a.69.69 0 00.512.215.68.68 0 00.512-.215zm1.574 3.61a1.193 1.193 0 01-.363-.875c0-.341.121-.633.363-.875s.534-.363.875-.363c.341 0 .633.121.875.363.245.242.367.534.367.875 0 .341-.122.633-.367.875a1.193 1.193 0 01-.875.363c-.341 0-.633-.121-.875-.363zm.363-1.418a.75.75 0 00-.207.543c0 .219.069.401.207.547a.684.684 0 00.512.215.684.684 0 00.512-.215.765.765 0 00.207-.547.75.75 0 00-.207-.543.677.677 0 00-.512-.219.677.677 0 00-.512.219zm-12.003 20.101h.441V176h-.602v-4.48h-1.039v-.36c.183-.005.347-.035.492-.09.146-.057.262-.121.348-.191a1.381 1.381 0 00.328-.399l.032-.082zm2.839 1.098c-.323.412-.484.981-.484 1.707 0 .724.161 1.292.484 1.703.323.409.711.614 1.164.614.448 0 .832-.206 1.153-.618.32-.414.48-.981.48-1.703 0-.726-.161-1.294-.484-1.703-.323-.411-.708-.617-1.156-.617-.448 0-.834.206-1.157.617zm2.735-.383c.442.526.664 1.222.664 2.086 0 .865-.22 1.561-.66 2.09-.44.526-.965.789-1.575.789-.614 0-1.143-.263-1.585-.789-.441-.529-.661-1.225-.661-2.09 0-.864.222-1.56.664-2.086.443-.528.968-.793 1.575-.793.609 0 1.135.265 1.578.793zm2.703.383c-.323.412-.485.981-.485 1.707 0 .724.162 1.292.485 1.703.323.409.711.614 1.164.614.448 0 .832-.206 1.152-.618.321-.414.481-.981.481-1.703 0-.726-.162-1.294-.485-1.703-.323-.411-.708-.617-1.156-.617-.448 0-.833.206-1.156.617zm2.734-.383c.443.526.664 1.222.664 2.086 0 .865-.22 1.561-.66 2.09-.44.526-.965.789-1.574.789-.615 0-1.143-.263-1.586-.789-.44-.529-.66-1.225-.66-2.09 0-.864.221-1.56.664-2.086.443-.528.967-.793 1.574-.793.609 0 1.136.265 1.578.793zm2.141 4.887l3.519-5.602h.559L245.23 176h-.558zm1.433-5.316c.245.242.368.533.368.875a1.2 1.2 0 01-.368.879 1.191 1.191 0 01-.875.363c-.341 0-.632-.121-.875-.363a1.207 1.207 0 01-.363-.879c0-.342.121-.633.363-.875.243-.243.534-.364.875-.364.342 0 .633.121.875.364zm-.363 1.421a.753.753 0 00.211-.546c0-.219-.07-.4-.211-.543a.679.679 0 00-.512-.215c-.2 0-.371.071-.511.215a.75.75 0 00-.207.543c0 .218.069.401.207.546.14.144.311.215.511.215a.679.679 0 00.512-.215zm1.574 3.61a1.193 1.193 0 01-.363-.875c0-.341.121-.633.363-.875.243-.242.534-.363.875-.363.342 0 .633.121.875.363.245.242.368.534.368.875 0 .341-.123.633-.368.875a1.191 1.191 0 01-.875.363c-.341 0-.632-.121-.875-.363zm.364-1.418a.75.75 0 00-.207.543c0 .219.069.401.207.547a.682.682 0 00.511.215.683.683 0 00.512-.215.765.765 0 00.207-.547.75.75 0 00-.207-.543.675.675 0 00-.512-.219.675.675 0 00-.511.219z" fill="#000"/></svg>